<svg width="192" height="48" viewBox="0 0 192 48" fill="none" xmlns="http://www.w3.org/2000/svg">
<g clip-path="url(#clip0_804_478)">
<path fill-rule="evenodd" clip-rule="evenodd" d="M3.15363 33.648V26.8368L19.296 41.3328V48.0624L3.15363 33.648Z" fill="#2C3649" stroke="#334155" stroke-width="1.62" stroke-linejoin="round"/>
<path fill-rule="evenodd" clip-rule="evenodd" d="M19.3104 41.3472L41.328 36.0096V42.8496L19.3104 48.1584V41.3472Z" fill="#334155" stroke="#334155" stroke-width="1.62" stroke-linejoin="round"/>
<path fill-rule="evenodd" clip-rule="evenodd" d="M41.3472 36.0096V42.8496L47.232 23.0496V16.2384L41.3472 36.0096Z" fill="#334155" stroke="#334155" stroke-width="1.62" stroke-linejoin="round"/>
<path fill-rule="evenodd" clip-rule="evenodd" d="M31.1136 1.74719L47.2416 16.2432L41.3472 36.0096L19.296 41.3136L3.16803 26.8368L9.06723 7.05599L31.1136 1.74719ZM30.5568 13.248C35.6256 15.888 37.3728 21.7344 34.4256 26.3136C31.5072 30.8736 24.984 32.4432 19.8816 29.7984C14.8128 27.1872 13.0704 21.3072 16.0176 16.7472C18.9168 12.168 25.4256 10.584 30.5424 13.2288L30.5568 13.248Z" fill="#556070" stroke="#334155" stroke-width="1.62" stroke-linejoin="round"/>
<path fill-rule="evenodd" clip-rule="evenodd" d="M15.0048 24.24C14.5884 23.0002 14.4576 21.6823 14.6221 20.3848C14.7867 19.0873 15.2424 17.8438 15.9552 16.7472C18.9312 12.168 25.4592 10.6032 30.528 13.2624C34.8816 15.528 36.8016 20.136 35.3904 24.2688C34.5574 21.8604 32.8183 19.8715 30.5424 18.7248C25.44 16.0992 18.9168 17.6688 15.9696 22.2432C15.5706 22.8767 15.2514 23.5571 15.0192 24.2688L15.0048 24.24Z" fill="url(#paint0_linear_804_478)" stroke="#334155" stroke-width="1.62" stroke-linejoin="round"/>
<path fill-rule="evenodd" clip-rule="evenodd" d="M66.3208 22.5403V17.0282H71.3022C71.7766 17.0282 72.2286 17.0718 72.6581 17.1592C73.1096 17.2252 73.5048 17.3573 73.8437 17.5553C74.1826 17.7534 74.4536 18.0286 74.657 18.3811C74.8603 18.7335 74.962 19.185 74.962 19.7354C74.962 20.7257 74.657 21.4408 74.047 21.8806C73.437 22.3204 72.6576 22.5403 71.7088 22.5403H66.3208ZM61 13.0015V36.5689H72.7254C73.8098 36.5689 74.8603 36.4369 75.8769 36.1728C76.9164 35.9087 77.8314 35.5019 78.6218 34.9524C79.435 34.4019 80.0789 33.6981 80.5533 32.8408C81.0277 31.9592 81.2649 30.9243 81.2649 29.7359C81.2649 28.2621 80.8922 27.0078 80.1467 25.9728C79.4241 24.9165 78.3173 24.1796 76.8262 23.7621C77.9106 23.2553 78.7239 22.6058 79.2661 21.8136C79.8302 21.0214 80.1123 20.0311 80.1123 18.8427C80.1123 17.7427 79.9204 16.8184 79.5367 16.0699C79.1749 15.3223 78.6551 14.7282 77.9774 14.2874C77.2997 13.8252 76.4864 13.4951 75.5375 13.2971C74.5887 13.099 73.5382 13 72.386 13L61 13.0015ZM66.3208 32.5422V26.0718H72.1154C73.2676 26.0718 74.194 26.3359 74.8947 26.8641C75.5944 27.3709 75.9442 28.2291 75.9442 29.4388C75.9442 30.0553 75.8316 30.5617 75.6063 30.9578C75.403 31.3539 75.1204 31.6728 74.7586 31.9146C74.3968 32.135 73.9787 32.3 73.5043 32.4097C73.0299 32.4981 72.5331 32.5422 72.0138 32.5422H66.3208ZM100.159 36.5689V19.5039H95.3465V28.4485C95.3465 30.1874 95.0525 31.4417 94.4644 32.2116C93.8774 32.9602 92.9291 33.3345 91.6194 33.3345C90.4673 33.3345 89.6649 32.9932 89.2125 32.3107C88.761 31.6068 88.5352 30.5505 88.5352 29.1417V19.5039H83.7228V30.001C83.7228 31.0573 83.8135 32.0252 83.9948 32.9049C84.1982 33.7631 84.537 34.501 85.0115 35.1184C85.4859 35.7117 86.1297 36.1733 86.943 36.5034C87.7782 36.8335 88.8397 36.9985 90.1274 36.9985C91.144 36.9985 92.1382 36.7786 93.11 36.3388C94.0817 35.8981 94.8726 35.1825 95.4826 34.1922H95.5842V36.5689H100.159ZM107.534 16.8621V13H102.721V16.8621H107.534ZM102.721 19.5039V36.5689H107.534V19.5039H102.721ZM110.267 13V36.5689H115.079V13H110.267ZM130.113 27.9869C130.113 28.6908 130.045 29.3728 129.91 30.033C129.774 30.6932 129.548 31.2874 129.233 31.8155C128.916 32.3223 128.486 32.7301 127.944 33.0388C127.425 33.3456 126.77 33.499 125.979 33.499C125.234 33.499 124.59 33.3451 124.048 33.0374C123.528 32.7073 123.087 32.2893 122.726 31.7835C122.387 31.2553 122.138 30.6612 121.979 30.001C121.821 29.3408 121.743 28.6806 121.743 28.0204C121.743 27.3155 121.81 26.6442 121.946 26.0063C122.104 25.3461 122.342 24.7631 122.657 24.2573C122.996 23.7505 123.437 23.3432 123.979 23.0354C124.521 22.7277 125.188 22.5738 125.979 22.5738C126.77 22.5738 127.425 22.7277 127.944 23.0354C128.464 23.3432 128.882 23.7505 129.198 24.2573C129.537 24.7408 129.774 25.3126 129.91 25.9728C130.045 26.6117 130.113 27.283 130.113 27.9869ZM130.18 34.3903V36.5689H134.755V13H129.944V21.5835H129.875C129.333 20.7466 128.588 20.1194 127.639 19.7019C126.712 19.2612 125.729 19.0408 124.691 19.0408C123.403 19.0408 122.274 19.2942 121.303 19.801C120.331 20.2845 119.518 20.9335 118.863 21.7481C118.23 22.5626 117.744 23.5092 117.405 24.5879C117.09 25.6432 116.932 26.7432 116.932 27.8879C116.932 29.0762 117.09 30.2204 117.405 31.3204C117.744 32.4214 118.23 33.401 118.863 34.2592C119.518 35.0951 120.342 35.766 121.336 36.2718C122.331 36.7573 123.483 37 124.792 37C125.945 37 126.973 36.8015 127.877 36.4044C128.803 35.9869 129.549 35.3155 130.113 34.3903H130.18ZM150.64 28.0524C150.64 28.7573 150.561 29.4398 150.403 30.1C150.245 30.7602 149.996 31.3432 149.657 31.849C149.319 32.3549 148.89 32.7621 148.37 33.0709C147.873 33.3563 147.263 33.499 146.54 33.499C145.84 33.499 145.23 33.3563 144.71 33.0709C144.19 32.7621 143.761 32.3549 143.422 31.849C143.083 31.3432 142.835 30.7602 142.677 30.1C142.519 29.4398 142.44 28.7573 142.44 28.0524C142.44 27.3262 142.519 26.633 142.677 25.9728C142.835 25.3126 143.083 24.7301 143.422 24.2252C143.761 23.7184 144.19 23.3218 144.71 23.0354C145.23 22.7277 145.84 22.5738 146.54 22.5738C147.263 22.5738 147.873 22.7277 148.37 23.0354C148.89 23.3218 149.319 23.718 149.657 24.2238C149.996 24.7296 150.245 25.3126 150.403 25.9728C150.561 26.633 150.64 27.3262 150.64 28.0524ZM137.798 13V36.5689H142.372V34.3903H142.44C142.959 35.3369 143.727 36.0083 144.743 36.4044C145.76 36.8005 146.912 36.9985 148.2 36.9985C149.081 36.9985 149.951 36.8223 150.81 36.4699C151.668 36.1184 152.436 35.5796 153.114 34.8534C153.815 34.1272 154.379 33.2029 154.808 32.0806C155.237 30.9359 155.452 29.5825 155.452 28.0204C155.452 26.4573 155.238 25.1146 154.809 23.9922C154.38 22.8485 153.815 21.9136 153.114 21.1874C152.436 20.4612 151.668 19.9223 150.81 19.5709C149.951 19.2175 149.081 19.0408 148.2 19.0408C147.115 19.0408 146.065 19.25 145.048 19.6684C144.055 20.0646 143.264 20.7029 142.677 21.5835H142.608V13H137.798ZM162.187 28.0524C162.187 27.3709 162.255 26.7 162.391 26.0398C162.526 25.3796 162.752 24.7961 163.068 24.2893C163.407 23.7845 163.847 23.3777 164.389 23.0689C164.932 22.7388 165.609 22.5738 166.423 22.5738C167.236 22.5738 167.914 22.7388 168.456 23.0689C169.021 23.3767 169.461 23.7835 169.777 24.2893C170.116 24.7961 170.353 25.3796 170.489 26.0398C170.625 26.7 170.692 27.3709 170.692 28.0524C170.692 28.735 170.625 29.4063 170.489 30.0665C170.353 30.7044 170.116 31.2874 169.777 31.8155C169.461 32.3223 169.021 32.7301 168.456 33.0388C167.914 33.3456 167.236 33.499 166.423 33.499C165.609 33.499 164.932 33.3451 164.389 33.0374C163.847 32.7296 163.407 32.3223 163.068 31.8155C162.752 31.2874 162.526 30.7049 162.391 30.068C162.255 29.4078 162.187 28.7359 162.187 28.0524ZM157.375 28.0524C157.375 29.4175 157.589 30.6505 158.018 31.7515C158.448 32.8505 159.059 33.7961 159.849 34.5883C160.639 35.3592 161.588 35.9534 162.696 36.3709C163.802 36.7893 165.044 36.9985 166.423 36.9985C167.801 36.9985 169.044 36.7898 170.151 36.3723C171.28 35.9539 172.24 35.3592 173.031 34.5883C173.822 33.7961 174.432 32.85 174.86 31.75C175.289 30.65 175.503 29.4175 175.503 28.0524C175.503 26.6883 175.289 25.4563 174.86 24.3563C174.432 23.234 173.822 22.2874 173.031 21.5165C172.24 20.7243 171.28 20.1194 170.151 19.7019C169.044 19.2612 167.801 19.0408 166.423 19.0408C165.045 19.0408 163.803 19.2612 162.696 19.7019C161.589 20.1194 160.64 20.7243 159.849 21.5165C159.059 22.2874 158.449 23.234 158.019 24.3563C157.591 25.4563 157.376 26.6883 157.376 28.0524H157.375ZM183.476 19.5039V14.3864H178.662V19.5039H175.75V22.6393H178.664V32.7068C178.664 33.565 178.811 34.2583 179.105 34.7864C179.398 35.3146 179.793 35.7223 180.29 36.0097C180.81 36.2951 181.397 36.4816 182.053 36.5689C182.731 36.6796 183.442 36.735 184.188 36.735C184.662 36.735 185.148 36.7238 185.644 36.7015C186.141 36.6791 186.593 36.6354 187 36.5704V32.9383C186.774 32.982 186.537 33.015 186.288 33.0374C186.039 33.0597 185.78 33.0709 185.509 33.0709C184.696 33.0709 184.154 32.9388 183.883 32.6748C183.612 32.4107 183.476 31.8825 183.476 31.0903V22.6393H187V19.5039H183.476Z" fill="#334155" stroke="#334155" stroke-linejoin="round"/>
<g filter="url(#filter0_f_804_478)">
<path fill-rule="evenodd" clip-rule="evenodd" d="M61 39.1584V39.6H62.9008V44.64H63.4288V39.6H65.3392V39.1584H61ZM65.8912 39.1584V44.64H66.376V42.3264C66.3824 42.1344 66.4144 41.9552 66.472 41.7888C66.5296 41.6224 66.6096 41.4784 66.712 41.3568C66.8208 41.2352 66.9488 41.1424 67.096 41.0784C67.2496 41.0048 67.4256 40.968 67.624 40.968C67.816 40.968 67.976 41 68.104 41.064C68.2384 41.1248 68.344 41.208 68.4208 41.3136C68.4976 41.4224 68.5504 41.5504 68.5792 41.6976C68.6112 41.8416 68.6272 41.9984 68.6272 42.168V44.64H69.1072V42.0912C69.1072 41.8544 69.0848 41.6416 69.04 41.4528C68.9952 41.2608 68.9152 41.1008 68.8 40.9728C68.688 40.8448 68.5376 40.744 68.3488 40.6704C68.1664 40.5968 67.936 40.56 67.6576 40.56C67.376 40.56 67.1184 40.6352 66.8848 40.7856C66.648 40.9296 66.4832 41.1216 66.3904 41.3616H66.376V39.1536L65.8912 39.1584ZM73.024 42.384H70.4608C70.48 42.2048 70.52 42.0288 70.5808 41.856C70.648 41.6832 70.736 41.5328 70.8448 41.4048C70.9504 41.2736 71.08 41.1696 71.2336 41.0928C71.3872 41.0096 71.5632 40.968 71.7616 40.968C71.9568 40.968 72.1328 41.0096 72.2896 41.0928C72.44 41.1696 72.5696 41.2736 72.6784 41.4048C72.7872 41.5328 72.8688 41.6816 72.9232 41.8512C72.9872 42.0208 73.0208 42.1968 73.024 42.3792V42.384ZM70.4608 42.7872H73.5088C73.5184 42.512 73.4928 42.24 73.432 41.9712C73.368 41.7024 73.2656 41.4656 73.1248 41.2608C72.9872 41.0496 72.8048 40.88 72.5776 40.752C72.3536 40.624 72.0816 40.56 71.7616 40.56C71.4512 40.56 71.1808 40.6224 70.9504 40.7472C70.7264 40.8656 70.5424 41.024 70.3984 41.2224C70.2544 41.4144 70.1472 41.6384 70.0768 41.8944C70.0096 42.144 69.976 42.4 69.976 42.6624C69.976 42.9408 70.008 43.208 70.072 43.464C70.1456 43.7168 70.2544 43.9408 70.3984 44.136C70.5424 44.3248 70.7264 44.4752 70.9504 44.5872C71.1808 44.6928 71.4528 44.7456 71.7664 44.7456C72.2656 44.7456 72.6512 44.624 72.9232 44.3808C73.2016 44.1344 73.392 43.7856 73.4944 43.3344H73.0096C72.9328 43.6416 72.7936 43.888 72.592 44.0736C72.3936 44.256 72.1184 44.3472 71.7664 44.3472C71.536 44.3472 71.3376 44.2992 71.1712 44.2032C71.0112 44.1072 70.8768 43.984 70.768 43.8336C70.6592 43.6864 70.5792 43.52 70.528 43.3344C70.4832 43.1424 70.4608 42.96 70.4608 42.7872ZM80.5312 40.8144H81.0544C81.016 40.5264 80.928 40.2736 80.7904 40.056C80.6592 39.8352 80.4912 39.6512 80.2864 39.504C80.0848 39.3504 79.8592 39.2352 79.6096 39.1584C79.3632 39.0816 79.1088 39.0432 78.8464 39.0432C78.4176 39.0432 78.04 39.1232 77.7136 39.2832C77.3904 39.4336 77.1216 39.6416 76.9072 39.9072C76.6896 40.1696 76.528 40.4736 76.4224 40.8192C76.3136 41.1584 76.2592 41.5184 76.2592 41.8992C76.2592 42.2768 76.3136 42.6368 76.4224 42.9792C76.528 43.3248 76.688 43.6288 76.9024 43.8912C77.12 44.1472 77.3904 44.3552 77.7136 44.5152C78.04 44.6688 78.4176 44.7456 78.8464 44.7456C79.1696 44.7456 79.4624 44.6944 79.7248 44.592C79.9904 44.4896 80.2208 44.3456 80.416 44.16C80.608 43.968 80.768 43.736 80.896 43.464C81.0144 43.192 81.0928 42.888 81.1312 42.552H80.6032C80.5808 42.7984 80.5232 43.0288 80.4304 43.2432C80.3376 43.4512 80.2176 43.6352 80.0704 43.7952C79.92 43.9552 79.744 44.08 79.5424 44.1696C79.3344 44.2656 79.1024 44.3136 78.8464 44.3136C78.4848 44.3136 78.1728 44.2432 77.9104 44.1024C77.6512 43.9648 77.4368 43.7824 77.2672 43.5552C77.104 43.3248 76.9808 43.0672 76.8976 42.7824C76.8208 42.4912 76.7824 42.1968 76.7824 41.8992C76.7824 41.5952 76.8208 41.3008 76.8976 41.016C76.9808 40.728 77.104 40.472 77.2672 40.248C77.4368 40.0176 77.6512 39.8336 77.9104 39.696C78.1728 39.5552 78.4848 39.4848 78.8464 39.4848C79.048 39.4848 79.2384 39.5168 79.4176 39.5808C79.6 39.6352 79.7664 39.7184 79.9168 39.8304C80.0704 39.9456 80.1984 40.0864 80.3008 40.2528C80.4064 40.4192 80.4832 40.6064 80.5312 40.8144ZM83.656 40.968C83.8864 40.968 84.088 41.016 84.2608 41.112C84.4336 41.2112 84.5776 41.3392 84.6928 41.496C84.808 41.656 84.8944 41.8384 84.952 42.0432C85.016 42.2448 85.048 42.4496 85.048 42.6576C85.048 42.8688 85.016 43.0768 84.952 43.2816C84.8944 43.48 84.808 43.6592 84.6928 43.8192C84.5776 43.9792 84.4336 44.1072 84.2608 44.2032C84.088 44.2992 83.8864 44.3472 83.656 44.3472C83.4256 44.3472 83.2224 44.2992 83.0464 44.2032C82.8736 44.1072 82.728 43.9792 82.6096 43.8192C82.4976 43.6592 82.4112 43.48 82.3504 43.2816C82.2928 43.0768 82.264 42.8688 82.264 42.6576C82.264 42.4496 82.2928 42.2448 82.3504 42.0432C82.4112 41.8384 82.4976 41.6576 82.6096 41.5008C82.728 41.3408 82.8736 41.2128 83.0464 41.1168C83.2224 41.0208 83.4256 40.9728 83.656 40.9728V40.968ZM83.656 40.56C83.352 40.56 83.0832 40.6176 82.8496 40.7328C82.6192 40.8448 82.424 40.9952 82.264 41.184C82.104 41.376 81.984 41.6 81.904 41.856C81.8208 42.1056 81.7792 42.3728 81.7792 42.6576C81.7792 42.9456 81.8208 43.2176 81.904 43.4736C81.984 43.7232 82.104 43.9424 82.264 44.1312C82.424 44.3232 82.6192 44.4752 82.8496 44.5872C83.0832 44.6928 83.352 44.7456 83.656 44.7456C83.9568 44.7456 84.2224 44.6928 84.4528 44.5872C84.6896 44.4752 84.8864 44.3232 85.0432 44.1312C85.2032 43.9424 85.3232 43.7232 85.4032 43.4736C85.4864 43.2176 85.528 42.9456 85.528 42.6576C85.528 42.3696 85.4864 42.1008 85.4032 41.8512C85.3232 41.5952 85.2032 41.3728 85.0432 41.184C84.8832 40.992 84.6864 40.8416 84.4528 40.7328C84.2224 40.6176 83.9568 40.56 83.656 40.56ZM86.3824 40.6752V44.64H86.8624V42.3264C86.8688 42.1344 86.9008 41.9552 86.9584 41.7888C87.0224 41.6224 87.104 41.4784 87.2032 41.3568C87.312 41.2352 87.44 41.1424 87.5872 41.0784C87.7408 41.0048 87.9152 40.968 88.1104 40.968C88.3024 40.968 88.4624 41 88.5904 41.064C88.7248 41.1248 88.8304 41.208 88.9072 41.3136C88.984 41.4224 89.0384 41.5504 89.0704 41.6976C89.1024 41.8416 89.1184 41.9984 89.1184 42.168V44.64H89.5984V42.0912C89.5984 41.8544 89.576 41.6416 89.5312 41.4528C89.4864 41.2608 89.4064 41.1008 89.2912 40.9728C89.1792 40.8448 89.0288 40.744 88.84 40.6704C88.6544 40.5968 88.424 40.56 88.1488 40.56C87.8672 40.56 87.608 40.6352 87.3712 40.7856C87.1376 40.9296 86.9744 41.1216 86.8816 41.3616H86.8672V40.6752H86.3824ZM91.432 40.6752V39.4848H90.952V40.6752H90.256V41.0832H90.9472V43.7952C90.944 44.1344 91.0064 44.368 91.1344 44.496C91.2624 44.6176 91.4864 44.6784 91.8064 44.6784C91.88 44.6784 91.952 44.6752 92.0224 44.6688L92.2384 44.664V44.256C92.1008 44.272 91.9632 44.28 91.8256 44.28C91.6496 44.2704 91.5376 44.2224 91.4896 44.136C91.4512 44.04 91.432 43.9136 91.432 43.7568V41.0832H92.2384V40.6752H91.432ZM93.088 39.1584V39.9312H93.568V39.1584H93.088ZM93.088 40.6752V44.64H93.568V40.6752H93.088ZM94.7824 40.6752V44.64H95.2624V42.3264C95.2688 42.1344 95.3008 41.9552 95.3584 41.7888C95.4224 41.6224 95.504 41.4784 95.6032 41.3568C95.712 41.2352 95.84 41.1424 95.9872 41.0784C96.1408 41.0048 96.3152 40.968 96.5104 40.968C96.7024 40.968 96.8624 41 96.9904 41.064C97.1248 41.1248 97.2304 41.208 97.3072 41.3136C97.384 41.4224 97.4384 41.5504 97.4704 41.6976C97.5024 41.8416 97.5184 41.9984 97.5184 42.168V44.64H97.9984V42.0912C97.9984 41.8544 97.976 41.6416 97.9312 41.4528C97.8864 41.2608 97.8064 41.1008 97.6912 40.9728C97.5792 40.8448 97.4288 40.744 97.24 40.6704C97.0544 40.5968 96.824 40.56 96.5488 40.56C96.2672 40.56 96.008 40.6352 95.7712 40.7856C95.5376 40.9296 95.3744 41.1216 95.2816 41.3616H95.2672V40.6752H94.7824ZM102.275 44.64V40.6752H101.795V42.7584C101.795 42.9568 101.771 43.1536 101.723 43.3488C101.675 43.5408 101.603 43.7104 101.507 43.8576C101.411 44.0048 101.288 44.1248 101.138 44.2176C100.99 44.304 100.811 44.3472 100.6 44.3472C100.216 44.3472 99.944 44.256 99.784 44.0736C99.6336 43.888 99.5536 43.616 99.544 43.2576V40.6752H99.0592V43.248C99.0592 43.4848 99.0848 43.696 99.136 43.8816C99.1872 44.064 99.2672 44.2192 99.376 44.3472C99.4848 44.4752 99.6272 44.5728 99.8032 44.64C99.9824 44.7104 100.197 44.7456 100.446 44.7456C100.744 44.7456 101.013 44.6768 101.253 44.5392C101.499 44.3952 101.686 44.1904 101.814 43.9248H101.829V44.64H102.275ZM105.016 40.968C105.246 40.968 105.448 41.016 105.621 41.112C105.794 41.2112 105.938 41.3392 106.053 41.496C106.168 41.656 106.254 41.8384 106.312 42.0432C106.376 42.2448 106.408 42.4496 106.408 42.6576C106.408 42.8688 106.376 43.0768 106.312 43.2816C106.254 43.48 106.168 43.6592 106.053 43.8192C105.938 43.9792 105.794 44.1072 105.621 44.2032C105.448 44.2992 105.246 44.3472 105.016 44.3472C104.786 44.3472 104.582 44.2992 104.406 44.2032C104.234 44.1072 104.088 43.9792 103.97 43.8192C103.858 43.6592 103.771 43.48 103.71 43.2816C103.653 43.0768 103.624 42.8688 103.624 42.6576C103.624 42.4496 103.653 42.2448 103.71 42.0432C103.771 41.8384 103.858 41.6576 103.97 41.5008C104.088 41.3408 104.234 41.2128 104.406 41.1168C104.582 41.0208 104.786 40.9728 105.016 40.9728V40.968ZM105.016 40.56C104.712 40.56 104.443 40.6176 104.21 40.7328C103.979 40.8448 103.784 40.9952 103.624 41.184C103.464 41.376 103.344 41.6 103.264 41.856C103.181 42.1056 103.139 42.3728 103.139 42.6576C103.139 42.9456 103.181 43.2176 103.264 43.4736C103.344 43.7232 103.464 43.9424 103.624 44.1312C103.784 44.3232 103.979 44.4752 104.21 44.5872C104.443 44.6928 104.712 44.7456 105.016 44.7456C105.317 44.7456 105.582 44.6928 105.813 44.5872C106.05 44.4752 106.246 44.3232 106.403 44.1312C106.563 43.9424 106.683 43.7232 106.763 43.4736C106.846 43.2176 106.888 42.9456 106.888 42.6576C106.888 42.3696 106.846 42.1008 106.763 41.8512C106.683 41.5952 106.563 41.3728 106.403 41.184C106.243 40.992 106.046 40.8416 105.813 40.7328C105.582 40.6176 105.317 40.56 105.016 40.56ZM110.958 44.64V40.6752H110.478V42.7584C110.478 42.9568 110.454 43.1536 110.406 43.3488C110.362 43.5408 110.29 43.7104 110.19 43.8576C110.094 44.0048 109.971 44.1248 109.821 44.2176C109.674 44.304 109.494 44.3472 109.283 44.3472C108.899 44.3472 108.627 44.256 108.467 44.0736C108.317 43.888 108.237 43.616 108.227 43.2576V40.6752H107.742V43.248C107.742 43.4848 107.768 43.696 107.819 43.8816C107.87 44.064 107.95 44.2192 108.059 44.3472C108.171 44.4752 108.315 44.5728 108.491 44.64C108.667 44.7104 108.88 44.7456 109.13 44.7456C109.427 44.7456 109.696 44.6768 109.936 44.5392C110.182 44.3952 110.37 44.1904 110.498 43.9248H110.512V44.64H110.958ZM114.4 41.8368H114.88C114.87 41.6224 114.827 41.4352 114.75 41.2752C114.674 41.1152 114.57 40.9824 114.438 40.8768C114.31 40.768 114.158 40.688 113.982 40.6368C113.813 40.5856 113.629 40.56 113.43 40.56C113.258 40.56 113.082 40.5808 112.902 40.6224C112.726 40.664 112.566 40.728 112.422 40.8144C112.282 40.9008 112.165 41.016 112.072 41.16C111.986 41.304 111.942 41.4752 111.942 41.6736C111.942 41.8432 111.97 41.9872 112.024 42.1056C112.082 42.2176 112.158 42.3136 112.254 42.3936C112.357 42.4736 112.475 42.5408 112.61 42.5952C112.741 42.6464 112.885 42.6944 113.042 42.7392L113.666 42.8736C113.774 42.8992 113.88 42.9312 113.982 42.9696C114.091 43.0016 114.187 43.0464 114.27 43.104C114.35 43.1552 114.414 43.2224 114.462 43.3056C114.51 43.3824 114.534 43.4784 114.534 43.5936C114.534 43.7344 114.499 43.8528 114.429 43.9488C114.365 44.0416 114.278 44.1184 114.17 44.1792C114.061 44.2432 113.942 44.2864 113.814 44.3088C113.693 44.3344 113.573 44.3472 113.454 44.3472C113.131 44.3472 112.859 44.2656 112.638 44.1024C112.424 43.9328 112.307 43.6848 112.288 43.3584H111.803C111.845 43.8448 112.008 44.1968 112.293 44.4144C112.584 44.6384 112.963 44.7504 113.43 44.7504C113.616 44.7504 113.803 44.7296 113.992 44.688C114.181 44.6464 114.349 44.5792 114.496 44.4864C114.65 44.3904 114.776 44.2672 114.875 44.1168C114.971 43.9632 115.019 43.7792 115.019 43.5648C115.019 43.392 114.987 43.2416 114.923 43.1136C114.856 42.9856 114.768 42.8768 114.659 42.7872C114.557 42.7008 114.437 42.632 114.299 42.5808C114.165 42.5264 114.029 42.488 113.891 42.4656L113.248 42.3216L112.979 42.2448C112.883 42.2096 112.794 42.1664 112.71 42.1152C112.627 42.064 112.557 42.0016 112.499 41.928C112.448 41.8512 112.422 41.76 112.422 41.6544C112.422 41.5264 112.451 41.4176 112.509 41.328C112.566 41.2416 112.64 41.1728 112.73 41.1216C112.826 41.0672 112.926 41.0288 113.032 41.0064C113.144 40.9808 113.254 40.968 113.363 40.968C113.501 40.968 113.63 40.9856 113.752 41.0208C113.877 41.0528 113.984 41.104 114.074 41.1744C114.17 41.248 114.246 41.3408 114.304 41.4528C114.362 41.5616 114.394 41.6896 114.4 41.8368ZM118.125 39.1584V44.64H118.648V39.1584H118.125ZM119.982 40.6752V44.64H120.462V42.3264C120.469 42.1344 120.501 41.9552 120.558 41.7888C120.622 41.6224 120.704 41.4784 120.803 41.3568C120.912 41.2352 121.04 41.1424 121.187 41.0784C121.341 41.0048 121.515 40.968 121.71 40.968C121.902 40.968 122.062 41 122.19 41.064C122.325 41.1248 122.43 41.208 122.507 41.3136C122.584 41.4224 122.638 41.5504 122.67 41.6976C122.702 41.8416 122.718 41.9984 122.718 42.168V44.64H123.198V42.0912C123.198 41.8544 123.176 41.6416 123.131 41.4528C123.086 41.2608 123.006 41.1008 122.891 40.9728C122.779 40.8448 122.629 40.744 122.44 40.6704C122.254 40.5968 122.024 40.56 121.749 40.56C121.467 40.56 121.208 40.6352 120.971 40.7856C120.738 40.9296 120.574 41.1216 120.482 41.3616H120.467V40.6752H119.982ZM125.032 40.6752V39.4848H124.552V40.6752H123.856V41.0832H124.547V43.7952C124.544 44.1344 124.606 44.368 124.734 44.496C124.862 44.6176 125.086 44.6784 125.406 44.6784C125.48 44.6784 125.552 44.6752 125.622 44.6688L125.838 44.664V44.256C125.701 44.272 125.563 44.28 125.426 44.28C125.25 44.2704 125.138 44.2224 125.09 44.136C125.051 44.04 125.032 43.9136 125.032 43.7568V41.0832H125.838V40.6752H125.032ZM129.525 42.384H126.962C126.984 42.2048 127.026 42.0288 127.086 41.856C127.15 41.6832 127.237 41.5328 127.346 41.4048C127.454 41.2736 127.586 41.1696 127.739 41.0928C127.893 41.0096 128.069 40.968 128.267 40.968C128.462 40.968 128.638 41.0096 128.795 41.0928C128.946 41.1696 129.074 41.2736 129.179 41.4048C129.288 41.5328 129.371 41.6816 129.429 41.8512C129.493 42.0208 129.525 42.1968 129.525 42.3792V42.384ZM126.962 42.7872H130.014C130.024 42.512 129.998 42.24 129.938 41.9712C129.874 41.7024 129.771 41.4656 129.63 41.2608C129.49 41.0496 129.307 40.88 129.083 40.752C128.859 40.624 128.587 40.56 128.267 40.56C127.957 40.56 127.685 40.6224 127.451 40.7472C127.227 40.8656 127.045 41.024 126.904 41.2224C126.76 41.4144 126.651 41.6384 126.578 41.8944C126.514 42.144 126.482 42.4 126.482 42.6624C126.482 42.9408 126.514 43.208 126.578 43.464C126.651 43.7168 126.76 43.9408 126.904 44.136C127.045 44.3248 127.229 44.4752 127.456 44.5872C127.686 44.6928 127.958 44.7456 128.272 44.7456C128.771 44.7456 129.157 44.624 129.429 44.3808C129.704 44.1344 129.893 43.7856 129.995 43.3344H129.515C129.438 43.6416 129.299 43.888 129.098 44.0736C128.899 44.256 128.622 44.3472 128.267 44.3472C128.037 44.3472 127.84 44.2992 127.677 44.2032C127.514 44.1072 127.378 43.984 127.269 43.8336C127.163 43.6864 127.083 43.52 127.029 43.3344C126.984 43.1424 126.962 42.96 126.962 42.7872ZM134.152 44.3184V40.6752H133.672V41.3616H133.653C133.608 41.2528 133.542 41.1504 133.456 41.0544C133.373 40.9584 133.277 40.8736 133.168 40.8C133.062 40.7232 132.942 40.664 132.808 40.6224C132.68 40.5808 132.542 40.56 132.395 40.56C132.107 40.56 131.851 40.6144 131.627 40.7232C131.406 40.8256 131.219 40.9696 131.066 41.1552C130.918 41.3344 130.803 41.5456 130.72 41.7888C130.643 42.032 130.605 42.288 130.605 42.5568C130.605 42.8384 130.637 43.1056 130.701 43.3584C130.771 43.6048 130.877 43.8192 131.018 44.0016C131.168 44.1872 131.355 44.3328 131.579 44.4384C131.803 44.5408 132.075 44.592 132.395 44.592C132.686 44.592 132.939 44.5184 133.154 44.3712C133.374 44.224 133.541 44.0272 133.653 43.7808H133.667V44.3184C133.667 44.7984 133.568 45.1664 133.37 45.4224C133.171 45.6784 132.846 45.8064 132.395 45.8064C132.261 45.8064 132.13 45.7904 132.002 45.7584C131.874 45.736 131.757 45.6928 131.651 45.6288C131.549 45.568 131.459 45.488 131.382 45.3888C131.309 45.2896 131.261 45.1648 131.238 45.0144H130.749C130.765 45.2256 130.822 45.4048 130.922 45.552C131.024 45.7056 131.149 45.832 131.296 45.9312C131.45 46.0272 131.621 46.0992 131.81 46.1472C132.002 46.192 132.197 46.2144 132.395 46.2144C132.715 46.2144 132.987 46.1712 133.211 46.0848C133.435 45.9984 133.616 45.872 133.754 45.7056C133.891 45.5456 133.99 45.3472 134.051 45.1104C134.118 44.8736 134.152 44.6096 134.152 44.3184ZM132.395 44.1888C132.171 44.1888 131.976 44.144 131.81 44.0544C131.646 43.9648 131.51 43.848 131.402 43.704C131.296 43.5536 131.216 43.384 131.162 43.1952C131.114 43.0064 131.09 42.8128 131.09 42.6144C131.09 42.4096 131.112 42.2096 131.157 42.0144C131.208 41.8128 131.288 41.6368 131.397 41.4864C131.502 41.3296 131.638 41.2064 131.805 41.1168C131.965 41.0208 132.162 40.9728 132.395 40.9728C132.626 40.9728 132.819 41.0208 132.976 41.1168C133.142 41.2128 133.277 41.3408 133.379 41.5008C133.482 41.6608 133.555 41.8368 133.6 42.0288C133.645 42.2208 133.667 42.416 133.667 42.6144C133.667 42.8128 133.64 43.0064 133.586 43.1952C133.534 43.3872 133.454 43.5568 133.346 43.704C133.24 43.848 133.107 43.9648 132.947 44.0544C132.787 44.144 132.603 44.1888 132.395 44.1888ZM135.213 40.6752V44.64H135.698V42.528C135.698 42.3168 135.734 42.1248 135.808 41.952C135.878 41.7728 135.978 41.6192 136.106 41.4912C136.24 41.3632 136.397 41.2672 136.576 41.2032C136.755 41.1296 136.954 41.0976 137.171 41.1072V40.6272C136.813 40.608 136.504 40.6864 136.245 40.8624C135.989 41.0352 135.798 41.2832 135.674 41.6064H135.659V40.6752H135.213ZM137.718 41.8896H138.198C138.211 41.5696 138.315 41.3376 138.51 41.1936C138.702 41.0432 138.954 40.968 139.264 40.968C139.405 40.968 139.538 40.9808 139.662 41.0064C139.79 41.0288 139.901 41.0704 139.994 41.1312C140.09 41.192 140.163 41.2768 140.214 41.3856C140.272 41.488 140.301 41.6208 140.301 41.784C140.301 41.8896 140.285 41.976 140.253 42.0432C140.227 42.1104 140.189 42.1648 140.138 42.2064C140.086 42.2416 140.022 42.2672 139.946 42.2832C139.869 42.2992 139.779 42.312 139.677 42.3216L138.899 42.4176C138.65 42.4496 138.422 42.5072 138.218 42.5904C138.019 42.6704 137.859 42.7904 137.738 42.9504C137.61 43.104 137.546 43.3184 137.546 43.5936C137.546 43.7952 137.581 43.9712 137.651 44.1216C137.722 44.2624 137.816 44.3808 137.934 44.4768C138.056 44.5728 138.197 44.64 138.357 44.6784C138.52 44.7232 138.694 44.7456 138.88 44.7456C139.072 44.7456 139.238 44.7296 139.379 44.6976C139.52 44.6592 139.645 44.6064 139.754 44.5392C139.866 44.4752 139.965 44.3936 140.051 44.2944C140.147 44.192 140.237 44.0768 140.32 43.9488H140.339C140.339 44.0512 140.344 44.1472 140.354 44.2368C140.37 44.3168 140.397 44.3872 140.435 44.448C140.477 44.512 140.534 44.56 140.608 44.592C140.685 44.624 140.784 44.64 140.906 44.64C140.97 44.64 141.024 44.6368 141.069 44.6304L141.222 44.6112V44.2032C141.174 44.2224 141.123 44.232 141.069 44.232C140.877 44.232 140.781 44.136 140.781 43.944V41.8368C140.781 41.5712 140.738 41.3568 140.651 41.1936C140.565 41.024 140.453 40.8928 140.315 40.8C140.178 40.7072 140.021 40.6464 139.845 40.6176C139.672 40.5792 139.498 40.56 139.322 40.56C139.091 40.56 138.883 40.5856 138.698 40.6368C138.506 40.688 138.338 40.768 138.194 40.8768C138.056 40.9856 137.946 41.1232 137.862 41.2896C137.782 41.4592 137.734 41.6592 137.718 41.8896ZM140.301 42.4752V43.104C140.301 43.296 140.262 43.4704 140.186 43.6272C140.112 43.7808 140.011 43.9104 139.883 44.016C139.762 44.1248 139.616 44.208 139.446 44.2656C139.277 44.32 139.101 44.3472 138.918 44.3472C138.803 44.3472 138.691 44.3296 138.582 44.2944C138.477 44.2592 138.384 44.208 138.304 44.1408C138.221 44.0704 138.154 43.9888 138.102 43.896C138.058 43.8 138.035 43.6896 138.035 43.5648C138.035 43.3728 138.091 43.224 138.203 43.1184C138.322 43.0128 138.47 42.9312 138.65 42.8736C138.829 42.816 139.026 42.7744 139.24 42.7488L139.878 42.6528L140.109 42.5952C140.195 42.5696 140.253 42.5296 140.282 42.4752H140.301ZM142.658 40.6752V39.4848H142.178V40.6752H141.482V41.0832H142.173V43.7952C142.17 44.1344 142.232 44.368 142.36 44.496C142.488 44.6176 142.712 44.6784 143.032 44.6784C143.106 44.6784 143.178 44.6752 143.248 44.6688L143.464 44.664V44.256C143.326 44.272 143.189 44.28 143.051 44.28C142.875 44.2704 142.763 44.2224 142.715 44.136C142.677 44.04 142.658 43.9136 142.658 43.7568V41.0832H143.464V40.6752H142.658ZM144.309 39.1584V39.9312H144.798V39.1584H144.309ZM144.309 40.6752V44.64H144.798V40.6752H144.309ZM147.688 40.968C147.918 40.968 148.122 41.016 148.298 41.112C148.47 41.2112 148.614 41.3392 148.73 41.496C148.845 41.656 148.931 41.8384 148.989 42.0432C149.05 42.2448 149.08 42.4496 149.08 42.6576C149.08 42.8688 149.048 43.0768 148.984 43.2816C148.93 43.48 148.843 43.6592 148.725 43.8192C148.613 43.9792 148.469 44.1072 148.293 44.2032C148.12 44.2992 147.918 44.3472 147.688 44.3472C147.458 44.3472 147.256 44.2992 147.083 44.2032C146.907 44.1072 146.762 43.9792 146.646 43.8192C146.531 43.6592 146.443 43.48 146.382 43.2816C146.328 43.0768 146.301 42.8688 146.301 42.6576C146.301 42.4496 146.328 42.2448 146.382 42.0432C146.446 41.8384 146.534 41.6576 146.646 41.5008C146.762 41.3408 146.906 41.2128 147.078 41.1168C147.254 41.0208 147.458 40.9728 147.688 40.9728V40.968ZM147.688 40.56C147.387 40.56 147.118 40.6176 146.882 40.7328C146.651 40.8448 146.458 40.9952 146.301 41.184C146.141 41.376 146.019 41.6 145.936 41.856C145.856 42.1056 145.816 42.3728 145.816 42.6576C145.816 42.9456 145.856 43.2176 145.936 43.4736C146.019 43.7232 146.141 43.9424 146.301 44.1312C146.461 44.3232 146.654 44.4752 146.882 44.5872C147.118 44.6928 147.387 44.7456 147.688 44.7456C147.992 44.7456 148.259 44.6928 148.49 44.5872C148.723 44.4752 148.92 44.3232 149.08 44.1312C149.24 43.9424 149.36 43.7232 149.44 43.4736C149.523 43.2176 149.565 42.9456 149.565 42.6576C149.565 42.3696 149.523 42.1008 149.44 41.8512C149.357 41.5952 149.237 41.3728 149.08 41.184C148.92 40.992 148.723 40.8416 148.49 40.7328C148.259 40.6176 147.992 40.56 147.688 40.56ZM150.419 40.6752V44.64H150.899V42.3264C150.906 42.1344 150.938 41.9552 150.995 41.7888C151.056 41.6224 151.136 41.4784 151.235 41.3568C151.344 41.2352 151.472 41.1424 151.619 41.0784C151.776 41.0048 151.952 40.968 152.147 40.968C152.339 40.968 152.499 41 152.627 41.064C152.762 41.1248 152.867 41.208 152.944 41.3136C153.021 41.4224 153.075 41.5504 153.107 41.6976C153.139 41.8416 153.155 41.9984 153.155 42.168V44.64H153.635V42.0912C153.635 41.8544 153.613 41.6416 153.568 41.4528C153.52 41.2608 153.44 41.1008 153.328 40.9728C153.216 40.8448 153.066 40.744 152.877 40.6704C152.691 40.5968 152.461 40.56 152.186 40.56C151.904 40.56 151.645 40.6352 151.408 40.7856C151.171 40.9296 151.008 41.1216 150.918 41.3616H150.899V40.6752H150.419ZM156.923 39.1584V44.64H157.446V42.0288H160.072V41.5824H157.446V39.6H160.403V39.1584H156.923ZM161.238 40.6752V44.64H161.723V42.528C161.723 42.3168 161.758 42.1248 161.829 41.952C161.902 41.7728 162.003 41.6192 162.131 41.4912C162.262 41.3632 162.418 41.2672 162.597 41.2032C162.776 41.1296 162.976 41.0976 163.197 41.1072V40.6272C162.838 40.608 162.53 40.6864 162.27 40.8624C162.014 41.0352 161.824 41.2832 161.699 41.6064H161.685V40.6752H161.238ZM163.744 41.8896H164.224C164.237 41.5696 164.341 41.3376 164.536 41.1936C164.728 41.0432 164.978 40.968 165.285 40.968C165.429 40.968 165.563 40.9808 165.688 41.0064C165.816 41.0288 165.925 41.0704 166.014 41.1312C166.11 41.192 166.186 41.2768 166.24 41.3856C166.294 41.488 166.322 41.6208 166.322 41.784C166.322 41.8896 166.306 41.976 166.274 42.0432C166.251 42.1104 166.214 42.1648 166.163 42.2064C166.112 42.2416 166.048 42.2672 165.971 42.2832C165.894 42.2992 165.805 42.312 165.702 42.3216L164.925 42.4176C164.675 42.4496 164.448 42.5072 164.243 42.5904C164.042 42.6704 163.882 42.7904 163.763 42.9504C163.635 43.104 163.571 43.3184 163.571 43.5936C163.571 43.7952 163.605 43.9712 163.672 44.1216C163.746 44.2624 163.842 44.3808 163.96 44.4768C164.082 44.5728 164.222 44.64 164.382 44.6784C164.542 44.7232 164.715 44.7456 164.901 44.7456C165.096 44.7456 165.262 44.7296 165.4 44.6976C165.544 44.6592 165.67 44.6064 165.779 44.5392C165.891 44.4752 165.99 44.3936 166.077 44.2944C166.173 44.192 166.262 44.0768 166.346 43.9488H166.36C166.36 44.0512 166.366 44.1472 166.379 44.2368C166.392 44.3168 166.419 44.3872 166.461 44.448C166.502 44.512 166.558 44.56 166.629 44.592C166.706 44.624 166.806 44.64 166.931 44.64C166.995 44.64 167.048 44.6368 167.09 44.6304L167.243 44.6112V44.2032C167.198 44.2224 167.147 44.232 167.09 44.232C166.901 44.232 166.806 44.136 166.806 43.944V41.8368C166.806 41.5712 166.763 41.3568 166.677 41.1936C166.59 41.024 166.478 40.8928 166.341 40.8C166.203 40.7072 166.046 40.6464 165.87 40.6176C165.698 40.5792 165.523 40.56 165.347 40.56C165.117 40.56 164.909 40.5856 164.723 40.6368C164.531 40.688 164.363 40.768 164.219 40.8768C164.082 40.9856 163.971 41.1232 163.888 41.2896C163.808 41.4592 163.76 41.6592 163.744 41.8896ZM166.322 42.4752V43.104C166.322 43.296 166.283 43.4704 166.206 43.6272C166.136 43.7808 166.037 43.9104 165.909 44.016C165.787 44.1248 165.642 44.208 165.472 44.2656C165.302 44.32 165.126 44.3472 164.944 44.3472C164.829 44.3472 164.717 44.3296 164.608 44.2944C164.502 44.2592 164.408 44.208 164.325 44.1408C164.245 44.0704 164.179 43.9888 164.128 43.896C164.08 43.8 164.056 43.6896 164.056 43.5648C164.056 43.3728 164.114 43.224 164.229 43.1184C164.344 43.0128 164.491 42.9312 164.67 42.8736C164.85 42.816 165.048 42.7744 165.266 42.7488L165.899 42.6528C165.966 42.64 166.043 42.6208 166.13 42.5952C166.219 42.5696 166.278 42.5296 166.307 42.4752H166.322ZM167.915 40.6752V44.64H168.395V42.432C168.395 42.2208 168.419 42.0288 168.467 41.856C168.512 41.6736 168.581 41.5184 168.674 41.3904C168.77 41.2592 168.893 41.1568 169.043 41.0832C169.197 41.0064 169.376 40.968 169.581 40.968C169.734 40.968 169.866 40.9936 169.974 41.0448C170.08 41.096 170.163 41.168 170.224 41.2608C170.291 41.3472 170.339 41.4528 170.368 41.5776C170.397 41.6928 170.411 41.8176 170.411 41.952V44.64H170.891V42.3984C170.891 42.2128 170.907 42.0368 170.939 41.8704C170.974 41.6944 171.034 41.5392 171.117 41.4048C171.2 41.2736 171.31 41.1696 171.448 41.0928C171.586 41.0096 171.76 40.968 171.971 40.968C172.317 40.968 172.56 41.056 172.701 41.232C172.838 41.3984 172.907 41.6464 172.907 41.976V44.64H173.387V41.952C173.387 41.024 172.95 40.56 172.077 40.56C171.814 40.56 171.568 40.624 171.338 40.752C171.107 40.88 170.934 41.0752 170.819 41.3376C170.746 41.0752 170.602 40.88 170.387 40.752C170.176 40.624 169.941 40.56 169.682 40.56C169.362 40.56 169.094 40.6304 168.88 40.7712C168.675 40.9088 168.509 41.1008 168.381 41.3472H168.362V40.6752H167.915ZM177.318 42.384H174.755C174.774 42.2048 174.814 42.0288 174.875 41.856C174.942 41.6832 175.03 41.5328 175.139 41.4048C175.245 41.2736 175.374 41.1696 175.528 41.0928C175.682 41.0096 175.858 40.968 176.056 40.968C176.251 40.968 176.427 41.0096 176.584 41.0928C176.734 41.1696 176.864 41.2736 176.973 41.4048C177.082 41.5328 177.163 41.6816 177.218 41.8512C177.282 42.0208 177.315 42.1968 177.318 42.3792V42.384ZM174.755 42.7872H177.803C177.813 42.512 177.787 42.24 177.726 41.9712C177.662 41.7024 177.56 41.4656 177.419 41.2608C177.282 41.0496 177.099 40.88 176.872 40.752C176.648 40.624 176.376 40.56 176.056 40.56C175.746 40.56 175.475 40.6224 175.245 40.7472C175.021 40.8656 174.837 41.024 174.693 41.2224C174.549 41.4144 174.442 41.6384 174.371 41.8944C174.304 42.144 174.27 42.4 174.27 42.6624C174.27 42.9408 174.302 43.208 174.366 43.464C174.44 43.7168 174.549 43.9408 174.693 44.136C174.837 44.3248 175.021 44.4752 175.245 44.5872C175.475 44.6928 175.747 44.7456 176.061 44.7456C176.56 44.7456 176.946 44.624 177.218 44.3808C177.496 44.1344 177.686 43.7856 177.789 43.3344H177.304C177.227 43.6416 177.088 43.888 176.886 44.0736C176.688 44.256 176.413 44.3472 176.061 44.3472C175.83 44.3472 175.634 44.2992 175.47 44.2032C175.304 44.1072 175.168 43.984 175.062 43.8336C174.954 43.6864 174.874 43.52 174.822 43.3344C174.778 43.1424 174.755 42.96 174.755 42.7872ZM178.197 40.6752L179.469 44.64H179.997L180.966 41.3088H180.981L181.96 44.64H182.488L183.765 40.6752H183.246L182.238 44.0736H182.219L181.25 40.6752H180.707L179.738 44.0736H179.723L178.71 40.6752H178.197ZM186.088 40.968C186.318 40.968 186.522 41.016 186.698 41.112C186.87 41.2112 187.014 41.3392 187.13 41.496C187.245 41.656 187.331 41.8384 187.389 42.0432C187.45 42.2448 187.48 42.4496 187.48 42.6576C187.48 42.8688 187.448 43.0768 187.384 43.2816C187.33 43.48 187.243 43.6592 187.125 43.8192C187.013 43.9792 186.869 44.1072 186.693 44.2032C186.52 44.2992 186.318 44.3472 186.088 44.3472C185.858 44.3472 185.656 44.2992 185.483 44.2032C185.307 44.1072 185.162 43.9792 185.046 43.8192C184.931 43.6592 184.843 43.48 184.782 43.2816C184.728 43.0768 184.701 42.8688 184.701 42.6576C184.701 42.4496 184.728 42.2448 184.782 42.0432C184.846 41.8384 184.934 41.6576 185.046 41.5008C185.162 41.3408 185.306 41.2128 185.478 41.1168C185.654 41.0208 185.858 40.9728 186.088 40.9728V40.968ZM186.088 40.56C185.787 40.56 185.518 40.6176 185.282 40.7328C185.051 40.8448 184.858 40.9952 184.701 41.184C184.541 41.376 184.419 41.6 184.336 41.856C184.256 42.1056 184.216 42.3728 184.216 42.6576C184.216 42.9456 184.256 43.2176 184.336 43.4736C184.419 43.7232 184.541 43.9424 184.701 44.1312C184.861 44.3232 185.054 44.4752 185.282 44.5872C185.518 44.6928 185.787 44.7456 186.088 44.7456C186.392 44.7456 186.659 44.6928 186.89 44.5872C187.123 44.4752 187.32 44.3232 187.48 44.1312C187.64 43.9424 187.76 43.7232 187.84 43.4736C187.923 43.2176 187.965 42.9456 187.965 42.6576C187.965 42.3696 187.923 42.1008 187.84 41.8512C187.757 41.5952 187.637 41.3728 187.48 41.184C187.32 40.992 187.123 40.8416 186.89 40.7328C186.659 40.6176 186.392 40.56 186.088 40.56ZM188.824 40.6752V44.64H189.304V42.528C189.304 42.3168 189.341 42.1248 189.414 41.952C189.488 41.7728 189.589 41.6192 189.717 41.4912C189.848 41.3632 190.003 41.2672 190.182 41.2032C190.362 41.1296 190.562 41.0976 190.782 41.1072V40.6272C190.424 40.608 190.115 40.6864 189.856 40.8624C189.6 41.0352 189.41 41.2832 189.285 41.6064H189.27V40.6752H188.824ZM191.373 39.1584V44.64H191.858V43.1328L192.64 42.48L194.21 44.64H194.814L193.01 42.144L194.699 40.6752H194.056L191.858 42.5952V39.1584H191.373Z" fill="white"/>
</g>
</g>
<defs>
<filter id="filter0_f_804_478" x="55" y="33.0432" width="145.814" height="19.1712" filterUnits="userSpaceOnUse" color-interpolation-filters="sRGB">
<feFlood flood-opacity="0" result="BackgroundImageFix"/>
<feBlend mode="normal" in="SourceGraphic" in2="BackgroundImageFix" result="shape"/>
<feGaussianBlur stdDeviation="3" result="effect1_foregroundBlur_804_478"/>
</filter>
<linearGradient id="paint0_linear_804_478" x1="14.1779" y1="5.01982" x2="14.1779" y2="24.6622" gradientUnits="userSpaceOnUse">
<stop stop-color="#334155"/>
<stop offset="1" stop-color="#6A7792"/>
</linearGradient>
<clipPath id="clip0_804_478">
<rect width="192" height="48" fill="white"/>
</clipPath>
</defs>
</svg>
