<svg width="191" height="54" viewBox="0 0 191 54" fill="none" xmlns="http://www.w3.org/2000/svg">
<g filter="url(#filter0_f_809_53)">
<path fill-rule="evenodd" clip-rule="evenodd" d="M51 40.1152V40.5568H52.9008V45.5968H53.4288V40.5568H55.3392V40.1152H51ZM55.8912 40.1152V45.5968H56.376V43.2832C56.3824 43.0912 56.4144 42.912 56.472 42.7456C56.5296 42.5792 56.6096 42.4352 56.712 42.3136C56.8208 42.192 56.9488 42.0992 57.096 42.0352C57.2496 41.9616 57.4256 41.9248 57.624 41.9248C57.816 41.9248 57.976 41.9568 58.104 42.0208C58.2384 42.0816 58.344 42.1648 58.4208 42.2704C58.4976 42.3792 58.5504 42.5072 58.5792 42.6544C58.6112 42.7984 58.6272 42.9552 58.6272 43.1248V45.5968H59.1072V43.048C59.1072 42.8112 59.0848 42.5984 59.04 42.4096C58.9952 42.2176 58.9152 42.0576 58.8 41.9296C58.688 41.8016 58.5376 41.7008 58.3488 41.6272C58.1664 41.5536 57.936 41.5168 57.6576 41.5168C57.376 41.5168 57.1184 41.592 56.8848 41.7424C56.648 41.8864 56.4832 42.0784 56.3904 42.3184H56.376V40.1104L55.8912 40.1152ZM63.024 43.3408H60.4608C60.48 43.1616 60.52 42.9856 60.5808 42.8128C60.648 42.64 60.736 42.4896 60.8448 42.3616C60.9504 42.2304 61.08 42.1264 61.2336 42.0496C61.3872 41.9664 61.5632 41.9248 61.7616 41.9248C61.9568 41.9248 62.1328 41.9664 62.2896 42.0496C62.44 42.1264 62.5696 42.2304 62.6784 42.3616C62.7872 42.4896 62.8688 42.6384 62.9232 42.808C62.9872 42.9776 63.0208 43.1536 63.024 43.336V43.3408ZM60.4608 43.744H63.5088C63.5184 43.4688 63.4928 43.1968 63.432 42.928C63.368 42.6592 63.2656 42.4224 63.1248 42.2176C62.9872 42.0064 62.8048 41.8368 62.5776 41.7088C62.3536 41.5808 62.0816 41.5168 61.7616 41.5168C61.4512 41.5168 61.1808 41.5792 60.9504 41.704C60.7264 41.8224 60.5424 41.9808 60.3984 42.1792C60.2544 42.3712 60.1472 42.5952 60.0768 42.8512C60.0096 43.1008 59.976 43.3568 59.976 43.6192C59.976 43.8976 60.008 44.1648 60.072 44.4208C60.1456 44.6736 60.2544 44.8976 60.3984 45.0928C60.5424 45.2816 60.7264 45.432 60.9504 45.544C61.1808 45.6496 61.4528 45.7024 61.7664 45.7024C62.2656 45.7024 62.6512 45.5808 62.9232 45.3376C63.2016 45.0912 63.392 44.7424 63.4944 44.2912H63.0096C62.9328 44.5984 62.7936 44.8448 62.592 45.0304C62.3936 45.2128 62.1184 45.304 61.7664 45.304C61.536 45.304 61.3376 45.256 61.1712 45.16C61.0112 45.064 60.8768 44.9408 60.768 44.7904C60.6592 44.6432 60.5792 44.4768 60.528 44.2912C60.4832 44.0992 60.4608 43.9168 60.4608 43.744ZM70.5312 41.7712H71.0544C71.016 41.4832 70.928 41.2304 70.7904 41.0128C70.6592 40.792 70.4912 40.608 70.2864 40.4608C70.0848 40.3072 69.8592 40.192 69.6096 40.1152C69.3632 40.0384 69.1088 40 68.8464 40C68.4176 40 68.04 40.08 67.7136 40.24C67.3904 40.3904 67.1216 40.5984 66.9072 40.864C66.6896 41.1264 66.528 41.4304 66.4224 41.776C66.3136 42.1152 66.2592 42.4752 66.2592 42.856C66.2592 43.2336 66.3136 43.5936 66.4224 43.936C66.528 44.2816 66.688 44.5856 66.9024 44.848C67.12 45.104 67.3904 45.312 67.7136 45.472C68.04 45.6256 68.4176 45.7024 68.8464 45.7024C69.1696 45.7024 69.4624 45.6512 69.7248 45.5488C69.9904 45.4464 70.2208 45.3024 70.416 45.1168C70.608 44.9248 70.768 44.6928 70.896 44.4208C71.0144 44.1488 71.0928 43.8448 71.1312 43.5088H70.6032C70.5808 43.7552 70.5232 43.9856 70.4304 44.2C70.3376 44.408 70.2176 44.592 70.0704 44.752C69.92 44.912 69.744 45.0368 69.5424 45.1264C69.3344 45.2224 69.1024 45.2704 68.8464 45.2704C68.4848 45.2704 68.1728 45.2 67.9104 45.0592C67.6512 44.9216 67.4368 44.7392 67.2672 44.512C67.104 44.2816 66.9808 44.024 66.8976 43.7392C66.8208 43.448 66.7824 43.1536 66.7824 42.856C66.7824 42.552 66.8208 42.2576 66.8976 41.9728C66.9808 41.6848 67.104 41.4288 67.2672 41.2048C67.4368 40.9744 67.6512 40.7904 67.9104 40.6528C68.1728 40.512 68.4848 40.4416 68.8464 40.4416C69.048 40.4416 69.2384 40.4736 69.4176 40.5376C69.6 40.592 69.7664 40.6752 69.9168 40.7872C70.0704 40.9024 70.1984 41.0432 70.3008 41.2096C70.4064 41.376 70.4832 41.5632 70.5312 41.7712ZM73.656 41.9248C73.8864 41.9248 74.088 41.9728 74.2608 42.0688C74.4336 42.168 74.5776 42.296 74.6928 42.4528C74.808 42.6128 74.8944 42.7952 74.952 43C75.016 43.2016 75.048 43.4064 75.048 43.6144C75.048 43.8256 75.016 44.0336 74.952 44.2384C74.8944 44.4368 74.808 44.616 74.6928 44.776C74.5776 44.936 74.4336 45.064 74.2608 45.16C74.088 45.256 73.8864 45.304 73.656 45.304C73.4256 45.304 73.2224 45.256 73.0464 45.16C72.8736 45.064 72.728 44.936 72.6096 44.776C72.4976 44.616 72.4112 44.4368 72.3504 44.2384C72.2928 44.0336 72.264 43.8256 72.264 43.6144C72.264 43.4064 72.2928 43.2016 72.3504 43C72.4112 42.7952 72.4976 42.6144 72.6096 42.4576C72.728 42.2976 72.8736 42.1696 73.0464 42.0736C73.2224 41.9776 73.4256 41.9296 73.656 41.9296V41.9248ZM73.656 41.5168C73.352 41.5168 73.0832 41.5744 72.8496 41.6896C72.6192 41.8016 72.424 41.952 72.264 42.1408C72.104 42.3328 71.984 42.5568 71.904 42.8128C71.8208 43.0624 71.7792 43.3296 71.7792 43.6144C71.7792 43.9024 71.8208 44.1744 71.904 44.4304C71.984 44.68 72.104 44.8992 72.264 45.088C72.424 45.28 72.6192 45.432 72.8496 45.544C73.0832 45.6496 73.352 45.7024 73.656 45.7024C73.9568 45.7024 74.2224 45.6496 74.4528 45.544C74.6896 45.432 74.8864 45.28 75.0432 45.088C75.2032 44.8992 75.3232 44.68 75.4032 44.4304C75.4864 44.1744 75.528 43.9024 75.528 43.6144C75.528 43.3264 75.4864 43.0576 75.4032 42.808C75.3232 42.552 75.2032 42.3296 75.0432 42.1408C74.8832 41.9488 74.6864 41.7984 74.4528 41.6896C74.2224 41.5744 73.9568 41.5168 73.656 41.5168ZM76.3824 41.632V45.5968H76.8624V43.2832C76.8688 43.0912 76.9008 42.912 76.9584 42.7456C77.0224 42.5792 77.104 42.4352 77.2032 42.3136C77.312 42.192 77.44 42.0992 77.5872 42.0352C77.7408 41.9616 77.9152 41.9248 78.1104 41.9248C78.3024 41.9248 78.4624 41.9568 78.5904 42.0208C78.7248 42.0816 78.8304 42.1648 78.9072 42.2704C78.984 42.3792 79.0384 42.5072 79.0704 42.6544C79.1024 42.7984 79.1184 42.9552 79.1184 43.1248V45.5968H79.5984V43.048C79.5984 42.8112 79.576 42.5984 79.5312 42.4096C79.4864 42.2176 79.4064 42.0576 79.2912 41.9296C79.1792 41.8016 79.0288 41.7008 78.84 41.6272C78.6544 41.5536 78.424 41.5168 78.1488 41.5168C77.8672 41.5168 77.608 41.592 77.3712 41.7424C77.1376 41.8864 76.9744 42.0784 76.8816 42.3184H76.8672V41.632H76.3824ZM81.432 41.632V40.4416H80.952V41.632H80.256V42.04H80.9472V44.752C80.944 45.0912 81.0064 45.3248 81.1344 45.4528C81.2624 45.5744 81.4864 45.6352 81.8064 45.6352C81.88 45.6352 81.952 45.632 82.0224 45.6256L82.2384 45.6208V45.2128C82.1008 45.2288 81.9632 45.2368 81.8256 45.2368C81.6496 45.2272 81.5376 45.1792 81.4896 45.0928C81.4512 44.9968 81.432 44.8704 81.432 44.7136V42.04H82.2384V41.632H81.432ZM83.088 40.1152V40.888H83.568V40.1152H83.088ZM83.088 41.632V45.5968H83.568V41.632H83.088ZM84.7824 41.632V45.5968H85.2624V43.2832C85.2688 43.0912 85.3008 42.912 85.3584 42.7456C85.4224 42.5792 85.504 42.4352 85.6032 42.3136C85.712 42.192 85.84 42.0992 85.9872 42.0352C86.1408 41.9616 86.3152 41.9248 86.5104 41.9248C86.7024 41.9248 86.8624 41.9568 86.9904 42.0208C87.1248 42.0816 87.2304 42.1648 87.3072 42.2704C87.384 42.3792 87.4384 42.5072 87.4704 42.6544C87.5024 42.7984 87.5184 42.9552 87.5184 43.1248V45.5968H87.9984V43.048C87.9984 42.8112 87.976 42.5984 87.9312 42.4096C87.8864 42.2176 87.8064 42.0576 87.6912 41.9296C87.5792 41.8016 87.4288 41.7008 87.24 41.6272C87.0544 41.5536 86.824 41.5168 86.5488 41.5168C86.2672 41.5168 86.008 41.592 85.7712 41.7424C85.5376 41.8864 85.3744 42.0784 85.2816 42.3184H85.2672V41.632H84.7824ZM92.2752 45.5968V41.632H91.7952V43.7152C91.7952 43.9136 91.7712 44.1104 91.7232 44.3056C91.6752 44.4976 91.6032 44.6672 91.5072 44.8144C91.4112 44.9616 91.288 45.0816 91.1376 45.1744C90.9904 45.2608 90.8112 45.304 90.6 45.304C90.216 45.304 89.944 45.2128 89.784 45.0304C89.6336 44.8448 89.5536 44.5728 89.544 44.2144V41.632H89.0592V44.2048C89.0592 44.4416 89.0848 44.6528 89.136 44.8384C89.1872 45.0208 89.2672 45.176 89.376 45.304C89.4848 45.432 89.6272 45.5296 89.8032 45.5968C89.9824 45.6672 90.1968 45.7024 90.4464 45.7024C90.744 45.7024 91.0128 45.6336 91.2528 45.496C91.4992 45.352 91.6864 45.1472 91.8144 44.8816H91.8288V45.5968H92.2752ZM95.016 41.9248C95.2464 41.9248 95.448 41.9728 95.6208 42.0688C95.7936 42.168 95.9376 42.296 96.0528 42.4528C96.168 42.6128 96.2544 42.7952 96.312 43C96.376 43.2016 96.408 43.4064 96.408 43.6144C96.408 43.8256 96.376 44.0336 96.312 44.2384C96.2544 44.4368 96.168 44.616 96.0528 44.776C95.9376 44.936 95.7936 45.064 95.6208 45.16C95.448 45.256 95.2464 45.304 95.016 45.304C94.7856 45.304 94.5824 45.256 94.4064 45.16C94.2336 45.064 94.088 44.936 93.9696 44.776C93.8576 44.616 93.7712 44.4368 93.7104 44.2384C93.6528 44.0336 93.624 43.8256 93.624 43.6144C93.624 43.4064 93.6528 43.2016 93.7104 43C93.7712 42.7952 93.8576 42.6144 93.9696 42.4576C94.088 42.2976 94.2336 42.1696 94.4064 42.0736C94.5824 41.9776 94.7856 41.9296 95.016 41.9296V41.9248ZM95.016 41.5168C94.712 41.5168 94.4432 41.5744 94.2096 41.6896C93.9792 41.8016 93.784 41.952 93.624 42.1408C93.464 42.3328 93.344 42.5568 93.264 42.8128C93.1808 43.0624 93.1392 43.3296 93.1392 43.6144C93.1392 43.9024 93.1808 44.1744 93.264 44.4304C93.344 44.68 93.464 44.8992 93.624 45.088C93.784 45.28 93.9792 45.432 94.2096 45.544C94.4432 45.6496 94.712 45.7024 95.016 45.7024C95.3168 45.7024 95.5824 45.6496 95.8128 45.544C96.0496 45.432 96.2464 45.28 96.4032 45.088C96.5632 44.8992 96.6832 44.68 96.7632 44.4304C96.8464 44.1744 96.888 43.9024 96.888 43.6144C96.888 43.3264 96.8464 43.0576 96.7632 42.808C96.6832 42.552 96.5632 42.3296 96.4032 42.1408C96.2432 41.9488 96.0464 41.7984 95.8128 41.6896C95.5824 41.5744 95.3168 41.5168 95.016 41.5168ZM100.958 45.5968V41.632H100.478V43.7152C100.478 43.9136 100.454 44.1104 100.406 44.3056C100.362 44.4976 100.29 44.6672 100.19 44.8144C100.094 44.9616 99.9712 45.0816 99.8208 45.1744C99.6736 45.2608 99.4944 45.304 99.2832 45.304C98.8992 45.304 98.6272 45.2128 98.4672 45.0304C98.3168 44.8448 98.2368 44.5728 98.2272 44.2144V41.632H97.7424V44.2048C97.7424 44.4416 97.768 44.6528 97.8192 44.8384C97.8704 45.0208 97.9504 45.176 98.0592 45.304C98.1712 45.432 98.3152 45.5296 98.4912 45.5968C98.6672 45.6672 98.88 45.7024 99.1296 45.7024C99.4272 45.7024 99.696 45.6336 99.936 45.496C100.182 45.352 100.37 45.1472 100.498 44.8816H100.512V45.5968H100.958ZM104.4 42.7936H104.88C104.87 42.5792 104.827 42.392 104.75 42.232C104.674 42.072 104.57 41.9392 104.438 41.8336C104.31 41.7248 104.158 41.6448 103.982 41.5936C103.813 41.5424 103.629 41.5168 103.43 41.5168C103.258 41.5168 103.082 41.5376 102.902 41.5792C102.726 41.6208 102.566 41.6848 102.422 41.7712C102.282 41.8576 102.165 41.9728 102.072 42.1168C101.986 42.2608 101.942 42.432 101.942 42.6304C101.942 42.8 101.97 42.944 102.024 43.0624C102.082 43.1744 102.158 43.2704 102.254 43.3504C102.357 43.4304 102.475 43.4976 102.61 43.552C102.741 43.6032 102.885 43.6512 103.042 43.696L103.666 43.8304C103.774 43.856 103.88 43.888 103.982 43.9264C104.091 43.9584 104.187 44.0032 104.27 44.0608C104.35 44.112 104.414 44.1792 104.462 44.2624C104.51 44.3392 104.534 44.4352 104.534 44.5504C104.534 44.6912 104.499 44.8096 104.429 44.9056C104.365 44.9984 104.278 45.0752 104.17 45.136C104.061 45.2 103.942 45.2432 103.814 45.2656C103.693 45.2912 103.573 45.304 103.454 45.304C103.131 45.304 102.859 45.2224 102.638 45.0592C102.424 44.8896 102.307 44.6416 102.288 44.3152H101.803C101.845 44.8016 102.008 45.1536 102.293 45.3712C102.584 45.5952 102.963 45.7072 103.43 45.7072C103.616 45.7072 103.803 45.6864 103.992 45.6448C104.181 45.6032 104.349 45.536 104.496 45.4432C104.65 45.3472 104.776 45.224 104.875 45.0736C104.971 44.92 105.019 44.736 105.019 44.5216C105.019 44.3488 104.987 44.1984 104.923 44.0704C104.856 43.9424 104.768 43.8336 104.659 43.744C104.557 43.6576 104.437 43.5888 104.299 43.5376C104.165 43.4832 104.029 43.4448 103.891 43.4224L103.248 43.2784L102.979 43.2016C102.883 43.1664 102.794 43.1232 102.71 43.072C102.627 43.0208 102.557 42.9584 102.499 42.8848C102.448 42.808 102.422 42.7168 102.422 42.6112C102.422 42.4832 102.451 42.3744 102.509 42.2848C102.566 42.1984 102.64 42.1296 102.73 42.0784C102.826 42.024 102.926 41.9856 103.032 41.9632C103.144 41.9376 103.254 41.9248 103.363 41.9248C103.501 41.9248 103.63 41.9424 103.752 41.9776C103.877 42.0096 103.984 42.0608 104.074 42.1312C104.17 42.2048 104.246 42.2976 104.304 42.4096C104.362 42.5184 104.394 42.6464 104.4 42.7936ZM108.125 40.1152V45.5968H108.648V40.1152H108.125ZM109.982 41.632V45.5968H110.462V43.2832C110.469 43.0912 110.501 42.912 110.558 42.7456C110.622 42.5792 110.704 42.4352 110.803 42.3136C110.912 42.192 111.04 42.0992 111.187 42.0352C111.341 41.9616 111.515 41.9248 111.71 41.9248C111.902 41.9248 112.062 41.9568 112.19 42.0208C112.325 42.0816 112.43 42.1648 112.507 42.2704C112.584 42.3792 112.638 42.5072 112.67 42.6544C112.702 42.7984 112.718 42.9552 112.718 43.1248V45.5968H113.198V43.048C113.198 42.8112 113.176 42.5984 113.131 42.4096C113.086 42.2176 113.006 42.0576 112.891 41.9296C112.779 41.8016 112.629 41.7008 112.44 41.6272C112.254 41.5536 112.024 41.5168 111.749 41.5168C111.467 41.5168 111.208 41.592 110.971 41.7424C110.738 41.8864 110.574 42.0784 110.482 42.3184H110.467V41.632H109.982ZM115.032 41.632V40.4416H114.552V41.632H113.856V42.04H114.547V44.752C114.544 45.0912 114.606 45.3248 114.734 45.4528C114.862 45.5744 115.086 45.6352 115.406 45.6352C115.48 45.6352 115.552 45.632 115.622 45.6256L115.838 45.6208V45.2128C115.701 45.2288 115.563 45.2368 115.426 45.2368C115.25 45.2272 115.138 45.1792 115.09 45.0928C115.051 44.9968 115.032 44.8704 115.032 44.7136V42.04H115.838V41.632H115.032ZM119.525 43.3408H116.962C116.984 43.1616 117.026 42.9856 117.086 42.8128C117.15 42.64 117.237 42.4896 117.346 42.3616C117.454 42.2304 117.586 42.1264 117.739 42.0496C117.893 41.9664 118.069 41.9248 118.267 41.9248C118.462 41.9248 118.638 41.9664 118.795 42.0496C118.946 42.1264 119.074 42.2304 119.179 42.3616C119.288 42.4896 119.371 42.6384 119.429 42.808C119.493 42.9776 119.525 43.1536 119.525 43.336V43.3408ZM116.962 43.744H120.014C120.024 43.4688 119.998 43.1968 119.938 42.928C119.874 42.6592 119.771 42.4224 119.63 42.2176C119.49 42.0064 119.307 41.8368 119.083 41.7088C118.859 41.5808 118.587 41.5168 118.267 41.5168C117.957 41.5168 117.685 41.5792 117.451 41.704C117.227 41.8224 117.045 41.9808 116.904 42.1792C116.76 42.3712 116.651 42.5952 116.578 42.8512C116.514 43.1008 116.482 43.3568 116.482 43.6192C116.482 43.8976 116.514 44.1648 116.578 44.4208C116.651 44.6736 116.76 44.8976 116.904 45.0928C117.045 45.2816 117.229 45.432 117.456 45.544C117.686 45.6496 117.958 45.7024 118.272 45.7024C118.771 45.7024 119.157 45.5808 119.429 45.3376C119.704 45.0912 119.893 44.7424 119.995 44.2912H119.515C119.438 44.5984 119.299 44.8448 119.098 45.0304C118.899 45.2128 118.622 45.304 118.267 45.304C118.037 45.304 117.84 45.256 117.677 45.16C117.514 45.064 117.378 44.9408 117.269 44.7904C117.163 44.6432 117.083 44.4768 117.029 44.2912C116.984 44.0992 116.962 43.9168 116.962 43.744ZM124.152 45.2752V41.632H123.672V42.3184H123.653C123.608 42.2096 123.542 42.1072 123.456 42.0112C123.373 41.9152 123.277 41.8304 123.168 41.7568C123.062 41.68 122.942 41.6208 122.808 41.5792C122.68 41.5376 122.542 41.5168 122.395 41.5168C122.107 41.5168 121.851 41.5712 121.627 41.68C121.406 41.7824 121.219 41.9264 121.066 42.112C120.918 42.2912 120.803 42.5024 120.72 42.7456C120.643 42.9888 120.605 43.2448 120.605 43.5136C120.605 43.7952 120.637 44.0624 120.701 44.3152C120.771 44.5616 120.877 44.776 121.018 44.9584C121.168 45.144 121.355 45.2896 121.579 45.3952C121.803 45.4976 122.075 45.5488 122.395 45.5488C122.686 45.5488 122.939 45.4752 123.154 45.328C123.374 45.1808 123.541 44.984 123.653 44.7376H123.667V45.2752C123.667 45.7552 123.568 46.1232 123.37 46.3792C123.171 46.6352 122.846 46.7632 122.395 46.7632C122.261 46.7632 122.13 46.7472 122.002 46.7152C121.874 46.6928 121.757 46.6496 121.651 46.5856C121.549 46.5248 121.459 46.4448 121.382 46.3456C121.309 46.2464 121.261 46.1216 121.238 45.9712H120.749C120.765 46.1824 120.822 46.3616 120.922 46.5088C121.024 46.6624 121.149 46.7888 121.296 46.888C121.45 46.984 121.621 47.056 121.81 47.104C122.002 47.1488 122.197 47.1712 122.395 47.1712C122.715 47.1712 122.987 47.128 123.211 47.0416C123.435 46.9552 123.616 46.8288 123.754 46.6624C123.891 46.5024 123.99 46.304 124.051 46.0672C124.118 45.8304 124.152 45.5664 124.152 45.2752ZM122.395 45.1456C122.171 45.1456 121.976 45.1008 121.81 45.0112C121.646 44.9216 121.51 44.8048 121.402 44.6608C121.296 44.5104 121.216 44.3408 121.162 44.152C121.114 43.9632 121.09 43.7696 121.09 43.5712C121.09 43.3664 121.112 43.1664 121.157 42.9712C121.208 42.7696 121.288 42.5936 121.397 42.4432C121.502 42.2864 121.638 42.1632 121.805 42.0736C121.965 41.9776 122.162 41.9296 122.395 41.9296C122.626 41.9296 122.819 41.9776 122.976 42.0736C123.142 42.1696 123.277 42.2976 123.379 42.4576C123.482 42.6176 123.555 42.7936 123.6 42.9856C123.645 43.1776 123.667 43.3728 123.667 43.5712C123.667 43.7696 123.64 43.9632 123.586 44.152C123.534 44.344 123.454 44.5136 123.346 44.6608C123.24 44.8048 123.107 44.9216 122.947 45.0112C122.787 45.1008 122.603 45.1456 122.395 45.1456ZM125.213 41.632V45.5968H125.698V43.4848C125.698 43.2736 125.734 43.0816 125.808 42.9088C125.878 42.7296 125.978 42.576 126.106 42.448C126.24 42.32 126.397 42.224 126.576 42.16C126.755 42.0864 126.954 42.0544 127.171 42.064V41.584C126.813 41.5648 126.504 41.6432 126.245 41.8192C125.989 41.992 125.798 42.24 125.674 42.5632H125.659V41.632H125.213ZM127.718 42.8464H128.198C128.211 42.5264 128.315 42.2944 128.51 42.1504C128.702 42 128.954 41.9248 129.264 41.9248C129.405 41.9248 129.538 41.9376 129.662 41.9632C129.79 41.9856 129.901 42.0272 129.994 42.088C130.09 42.1488 130.163 42.2336 130.214 42.3424C130.272 42.4448 130.301 42.5776 130.301 42.7408C130.301 42.8464 130.285 42.9328 130.253 43C130.227 43.0672 130.189 43.1216 130.138 43.1632C130.086 43.1984 130.022 43.224 129.946 43.24C129.869 43.256 129.779 43.2688 129.677 43.2784L128.899 43.3744C128.65 43.4064 128.422 43.464 128.218 43.5472C128.019 43.6272 127.859 43.7472 127.738 43.9072C127.61 44.0608 127.546 44.2752 127.546 44.5504C127.546 44.752 127.581 44.928 127.651 45.0784C127.722 45.2192 127.816 45.3376 127.934 45.4336C128.056 45.5296 128.197 45.5968 128.357 45.6352C128.52 45.68 128.694 45.7024 128.88 45.7024C129.072 45.7024 129.238 45.6864 129.379 45.6544C129.52 45.616 129.645 45.5632 129.754 45.496C129.866 45.432 129.965 45.3504 130.051 45.2512C130.147 45.1488 130.237 45.0336 130.32 44.9056H130.339C130.339 45.008 130.344 45.104 130.354 45.1936C130.37 45.2736 130.397 45.344 130.435 45.4048C130.477 45.4688 130.534 45.5168 130.608 45.5488C130.685 45.5808 130.784 45.5968 130.906 45.5968C130.97 45.5968 131.024 45.5936 131.069 45.5872L131.222 45.568V45.16C131.174 45.1792 131.123 45.1888 131.069 45.1888C130.877 45.1888 130.781 45.0928 130.781 44.9008V42.7936C130.781 42.528 130.738 42.3136 130.651 42.1504C130.565 41.9808 130.453 41.8496 130.315 41.7568C130.178 41.664 130.021 41.6032 129.845 41.5744C129.672 41.536 129.498 41.5168 129.322 41.5168C129.091 41.5168 128.883 41.5424 128.698 41.5936C128.506 41.6448 128.338 41.7248 128.194 41.8336C128.056 41.9424 127.946 42.08 127.862 42.2464C127.782 42.416 127.734 42.616 127.718 42.8464ZM130.301 43.432V44.0608C130.301 44.2528 130.262 44.4272 130.186 44.584C130.112 44.7376 130.011 44.8672 129.883 44.9728C129.762 45.0816 129.616 45.1648 129.446 45.2224C129.277 45.2768 129.101 45.304 128.918 45.304C128.803 45.304 128.691 45.2864 128.582 45.2512C128.477 45.216 128.384 45.1648 128.304 45.0976C128.221 45.0272 128.154 44.9456 128.102 44.8528C128.058 44.7568 128.035 44.6464 128.035 44.5216C128.035 44.3296 128.091 44.1808 128.203 44.0752C128.322 43.9696 128.47 43.888 128.65 43.8304C128.829 43.7728 129.026 43.7312 129.24 43.7056L129.878 43.6096L130.109 43.552C130.195 43.5264 130.253 43.4864 130.282 43.432H130.301ZM132.658 41.632V40.4416H132.178V41.632H131.482V42.04H132.173V44.752C132.17 45.0912 132.232 45.3248 132.36 45.4528C132.488 45.5744 132.712 45.6352 133.032 45.6352C133.106 45.6352 133.178 45.632 133.248 45.6256L133.464 45.6208V45.2128C133.326 45.2288 133.189 45.2368 133.051 45.2368C132.875 45.2272 132.763 45.1792 132.715 45.0928C132.677 44.9968 132.658 44.8704 132.658 44.7136V42.04H133.464V41.632H132.658ZM134.309 40.1152V40.888H134.798V40.1152H134.309ZM134.309 41.632V45.5968H134.798V41.632H134.309ZM137.688 41.9248C137.918 41.9248 138.122 41.9728 138.298 42.0688C138.47 42.168 138.614 42.296 138.73 42.4528C138.845 42.6128 138.931 42.7952 138.989 43C139.05 43.2016 139.08 43.4064 139.08 43.6144C139.08 43.8256 139.048 44.0336 138.984 44.2384C138.93 44.4368 138.843 44.616 138.725 44.776C138.613 44.936 138.469 45.064 138.293 45.16C138.12 45.256 137.918 45.304 137.688 45.304C137.458 45.304 137.256 45.256 137.083 45.16C136.907 45.064 136.762 44.936 136.646 44.776C136.531 44.616 136.443 44.4368 136.382 44.2384C136.328 44.0336 136.301 43.8256 136.301 43.6144C136.301 43.4064 136.328 43.2016 136.382 43C136.446 42.7952 136.534 42.6144 136.646 42.4576C136.762 42.2976 136.906 42.1696 137.078 42.0736C137.254 41.9776 137.458 41.9296 137.688 41.9296V41.9248ZM137.688 41.5168C137.387 41.5168 137.118 41.5744 136.882 41.6896C136.651 41.8016 136.458 41.952 136.301 42.1408C136.141 42.3328 136.019 42.5568 135.936 42.8128C135.856 43.0624 135.816 43.3296 135.816 43.6144C135.816 43.9024 135.856 44.1744 135.936 44.4304C136.019 44.68 136.141 44.8992 136.301 45.088C136.461 45.28 136.654 45.432 136.882 45.544C137.118 45.6496 137.387 45.7024 137.688 45.7024C137.992 45.7024 138.259 45.6496 138.49 45.544C138.723 45.432 138.92 45.28 139.08 45.088C139.24 44.8992 139.36 44.68 139.44 44.4304C139.523 44.1744 139.565 43.9024 139.565 43.6144C139.565 43.3264 139.523 43.0576 139.44 42.808C139.357 42.552 139.237 42.3296 139.08 42.1408C138.92 41.9488 138.723 41.7984 138.49 41.6896C138.259 41.5744 137.992 41.5168 137.688 41.5168ZM140.419 41.632V45.5968H140.899V43.2832C140.906 43.0912 140.938 42.912 140.995 42.7456C141.056 42.5792 141.136 42.4352 141.235 42.3136C141.344 42.192 141.472 42.0992 141.619 42.0352C141.776 41.9616 141.952 41.9248 142.147 41.9248C142.339 41.9248 142.499 41.9568 142.627 42.0208C142.762 42.0816 142.867 42.1648 142.944 42.2704C143.021 42.3792 143.075 42.5072 143.107 42.6544C143.139 42.7984 143.155 42.9552 143.155 43.1248V45.5968H143.635V43.048C143.635 42.8112 143.613 42.5984 143.568 42.4096C143.52 42.2176 143.44 42.0576 143.328 41.9296C143.216 41.8016 143.066 41.7008 142.877 41.6272C142.691 41.5536 142.461 41.5168 142.186 41.5168C141.904 41.5168 141.645 41.592 141.408 41.7424C141.171 41.8864 141.008 42.0784 140.918 42.3184H140.899V41.632H140.419ZM146.923 40.1152V45.5968H147.446V42.9856H150.072V42.5392H147.446V40.5568H150.403V40.1152H146.923ZM151.238 41.632V45.5968H151.723V43.4848C151.723 43.2736 151.758 43.0816 151.829 42.9088C151.902 42.7296 152.003 42.576 152.131 42.448C152.262 42.32 152.418 42.224 152.597 42.16C152.776 42.0864 152.976 42.0544 153.197 42.064V41.584C152.838 41.5648 152.53 41.6432 152.27 41.8192C152.014 41.992 151.824 42.24 151.699 42.5632H151.685V41.632H151.238ZM153.744 42.8464H154.224C154.237 42.5264 154.341 42.2944 154.536 42.1504C154.728 42 154.978 41.9248 155.285 41.9248C155.429 41.9248 155.563 41.9376 155.688 41.9632C155.816 41.9856 155.925 42.0272 156.014 42.088C156.11 42.1488 156.186 42.2336 156.24 42.3424C156.294 42.4448 156.322 42.5776 156.322 42.7408C156.322 42.8464 156.306 42.9328 156.274 43C156.251 43.0672 156.214 43.1216 156.163 43.1632C156.112 43.1984 156.048 43.224 155.971 43.24C155.894 43.256 155.805 43.2688 155.702 43.2784L154.925 43.3744C154.675 43.4064 154.448 43.464 154.243 43.5472C154.042 43.6272 153.882 43.7472 153.763 43.9072C153.635 44.0608 153.571 44.2752 153.571 44.5504C153.571 44.752 153.605 44.928 153.672 45.0784C153.746 45.2192 153.842 45.3376 153.96 45.4336C154.082 45.5296 154.222 45.5968 154.382 45.6352C154.542 45.68 154.715 45.7024 154.901 45.7024C155.096 45.7024 155.262 45.6864 155.4 45.6544C155.544 45.616 155.67 45.5632 155.779 45.496C155.891 45.432 155.99 45.3504 156.077 45.2512C156.173 45.1488 156.262 45.0336 156.346 44.9056H156.36C156.36 45.008 156.366 45.104 156.379 45.1936C156.392 45.2736 156.419 45.344 156.461 45.4048C156.502 45.4688 156.558 45.5168 156.629 45.5488C156.706 45.5808 156.806 45.5968 156.931 45.5968C156.995 45.5968 157.048 45.5936 157.09 45.5872L157.243 45.568V45.16C157.198 45.1792 157.147 45.1888 157.09 45.1888C156.901 45.1888 156.806 45.0928 156.806 44.9008V42.7936C156.806 42.528 156.763 42.3136 156.677 42.1504C156.59 41.9808 156.478 41.8496 156.341 41.7568C156.203 41.664 156.046 41.6032 155.87 41.5744C155.698 41.536 155.523 41.5168 155.347 41.5168C155.117 41.5168 154.909 41.5424 154.723 41.5936C154.531 41.6448 154.363 41.7248 154.219 41.8336C154.082 41.9424 153.971 42.08 153.888 42.2464C153.808 42.416 153.76 42.616 153.744 42.8464ZM156.322 43.432V44.0608C156.322 44.2528 156.283 44.4272 156.206 44.584C156.136 44.7376 156.037 44.8672 155.909 44.9728C155.787 45.0816 155.642 45.1648 155.472 45.2224C155.302 45.2768 155.126 45.304 154.944 45.304C154.829 45.304 154.717 45.2864 154.608 45.2512C154.502 45.216 154.408 45.1648 154.325 45.0976C154.245 45.0272 154.179 44.9456 154.128 44.8528C154.08 44.7568 154.056 44.6464 154.056 44.5216C154.056 44.3296 154.114 44.1808 154.229 44.0752C154.344 43.9696 154.491 43.888 154.67 43.8304C154.85 43.7728 155.048 43.7312 155.266 43.7056L155.899 43.6096C155.966 43.5968 156.043 43.5776 156.13 43.552C156.219 43.5264 156.278 43.4864 156.307 43.432H156.322ZM157.915 41.632V45.5968H158.395V43.3888C158.395 43.1776 158.419 42.9856 158.467 42.8128C158.512 42.6304 158.581 42.4752 158.674 42.3472C158.77 42.216 158.893 42.1136 159.043 42.04C159.197 41.9632 159.376 41.9248 159.581 41.9248C159.734 41.9248 159.866 41.9504 159.974 42.0016C160.08 42.0528 160.163 42.1248 160.224 42.2176C160.291 42.304 160.339 42.4096 160.368 42.5344C160.397 42.6496 160.411 42.7744 160.411 42.9088V45.5968H160.891V43.3552C160.891 43.1696 160.907 42.9936 160.939 42.8272C160.974 42.6512 161.034 42.496 161.117 42.3616C161.2 42.2304 161.31 42.1264 161.448 42.0496C161.586 41.9664 161.76 41.9248 161.971 41.9248C162.317 41.9248 162.56 42.0128 162.701 42.1888C162.838 42.3552 162.907 42.6032 162.907 42.9328V45.5968H163.387V42.9088C163.387 41.9808 162.95 41.5168 162.077 41.5168C161.814 41.5168 161.568 41.5808 161.338 41.7088C161.107 41.8368 160.934 42.032 160.819 42.2944C160.746 42.032 160.602 41.8368 160.387 41.7088C160.176 41.5808 159.941 41.5168 159.682 41.5168C159.362 41.5168 159.094 41.5872 158.88 41.728C158.675 41.8656 158.509 42.0576 158.381 42.304H158.362V41.632H157.915ZM167.318 43.3408H164.755C164.774 43.1616 164.814 42.9856 164.875 42.8128C164.942 42.64 165.03 42.4896 165.139 42.3616C165.245 42.2304 165.374 42.1264 165.528 42.0496C165.682 41.9664 165.858 41.9248 166.056 41.9248C166.251 41.9248 166.427 41.9664 166.584 42.0496C166.734 42.1264 166.864 42.2304 166.973 42.3616C167.082 42.4896 167.163 42.6384 167.218 42.808C167.282 42.9776 167.315 43.1536 167.318 43.336V43.3408ZM164.755 43.744H167.803C167.813 43.4688 167.787 43.1968 167.726 42.928C167.662 42.6592 167.56 42.4224 167.419 42.2176C167.282 42.0064 167.099 41.8368 166.872 41.7088C166.648 41.5808 166.376 41.5168 166.056 41.5168C165.746 41.5168 165.475 41.5792 165.245 41.704C165.021 41.8224 164.837 41.9808 164.693 42.1792C164.549 42.3712 164.442 42.5952 164.371 42.8512C164.304 43.1008 164.27 43.3568 164.27 43.6192C164.27 43.8976 164.302 44.1648 164.366 44.4208C164.44 44.6736 164.549 44.8976 164.693 45.0928C164.837 45.2816 165.021 45.432 165.245 45.544C165.475 45.6496 165.747 45.7024 166.061 45.7024C166.56 45.7024 166.946 45.5808 167.218 45.3376C167.496 45.0912 167.686 44.7424 167.789 44.2912H167.304C167.227 44.5984 167.088 44.8448 166.886 45.0304C166.688 45.2128 166.413 45.304 166.061 45.304C165.83 45.304 165.634 45.256 165.47 45.16C165.304 45.064 165.168 44.9408 165.062 44.7904C164.954 44.6432 164.874 44.4768 164.822 44.2912C164.778 44.0992 164.755 43.9168 164.755 43.744ZM168.197 41.632L169.469 45.5968H169.997L170.966 42.2656H170.981L171.96 45.5968H172.488L173.765 41.632H173.246L172.238 45.0304H172.219L171.25 41.632H170.707L169.738 45.0304H169.723L168.71 41.632H168.197ZM176.088 41.9248C176.318 41.9248 176.522 41.9728 176.698 42.0688C176.87 42.168 177.014 42.296 177.13 42.4528C177.245 42.6128 177.331 42.7952 177.389 43C177.45 43.2016 177.48 43.4064 177.48 43.6144C177.48 43.8256 177.448 44.0336 177.384 44.2384C177.33 44.4368 177.243 44.616 177.125 44.776C177.013 44.936 176.869 45.064 176.693 45.16C176.52 45.256 176.318 45.304 176.088 45.304C175.858 45.304 175.656 45.256 175.483 45.16C175.307 45.064 175.162 44.936 175.046 44.776C174.931 44.616 174.843 44.4368 174.782 44.2384C174.728 44.0336 174.701 43.8256 174.701 43.6144C174.701 43.4064 174.728 43.2016 174.782 43C174.846 42.7952 174.934 42.6144 175.046 42.4576C175.162 42.2976 175.306 42.1696 175.478 42.0736C175.654 41.9776 175.858 41.9296 176.088 41.9296V41.9248ZM176.088 41.5168C175.787 41.5168 175.518 41.5744 175.282 41.6896C175.051 41.8016 174.858 41.952 174.701 42.1408C174.541 42.3328 174.419 42.5568 174.336 42.8128C174.256 43.0624 174.216 43.3296 174.216 43.6144C174.216 43.9024 174.256 44.1744 174.336 44.4304C174.419 44.68 174.541 44.8992 174.701 45.088C174.861 45.28 175.054 45.432 175.282 45.544C175.518 45.6496 175.787 45.7024 176.088 45.7024C176.392 45.7024 176.659 45.6496 176.89 45.544C177.123 45.432 177.32 45.28 177.48 45.088C177.64 44.8992 177.76 44.68 177.84 44.4304C177.923 44.1744 177.965 43.9024 177.965 43.6144C177.965 43.3264 177.923 43.0576 177.84 42.808C177.757 42.552 177.637 42.3296 177.48 42.1408C177.32 41.9488 177.123 41.7984 176.89 41.6896C176.659 41.5744 176.392 41.5168 176.088 41.5168ZM178.824 41.632V45.5968H179.304V43.4848C179.304 43.2736 179.341 43.0816 179.414 42.9088C179.488 42.7296 179.589 42.576 179.717 42.448C179.848 42.32 180.003 42.224 180.182 42.16C180.362 42.0864 180.562 42.0544 180.782 42.064V41.584C180.424 41.5648 180.115 41.6432 179.856 41.8192C179.6 41.992 179.41 42.24 179.285 42.5632H179.27V41.632H178.824ZM181.373 40.1152V45.5968H181.858V44.0896L182.64 43.4368L184.21 45.5968H184.814L183.01 43.1008L184.699 41.632H184.056L181.858 43.552V40.1152H181.373Z" fill="white"/>
</g>
<path fill-rule="evenodd" clip-rule="evenodd" d="M1.15363 32.9008V26.0896L17.296 40.5856V47.3152L1.15363 32.9008Z" fill="#2C3649" stroke="#334155" stroke-width="1.62" stroke-linejoin="round"/>
<path fill-rule="evenodd" clip-rule="evenodd" d="M17.3104 40.6L39.328 35.2624V42.1024L17.3104 47.4112V40.6Z" fill="#334155" stroke="#334155" stroke-width="1.62" stroke-linejoin="round"/>
<path fill-rule="evenodd" clip-rule="evenodd" d="M39.3472 35.2624V42.1024L45.232 22.3024V15.4912L39.3472 35.2624Z" fill="#334155" stroke="#334155" stroke-width="1.62" stroke-linejoin="round"/>
<path fill-rule="evenodd" clip-rule="evenodd" d="M29.1136 1L45.2416 15.496L39.3472 35.2624L17.296 40.5664L1.16803 26.0896L7.06723 6.3088L29.1136 1ZM28.5568 12.5008C33.6256 15.1408 35.3728 20.9872 32.4256 25.5664C29.5072 30.1264 22.984 31.696 17.8816 29.0512C12.8128 26.44 11.0704 20.56 14.0176 16C16.9168 11.4208 23.4256 9.8368 28.5424 12.4816L28.5568 12.5008Z" fill="#556070" stroke="#334155" stroke-width="1.62" stroke-linejoin="round"/>
<path fill-rule="evenodd" clip-rule="evenodd" d="M13.0048 23.4928C12.5884 22.253 12.4576 20.9351 12.6221 19.6376C12.7867 18.3401 13.2424 17.0966 13.9552 16C16.9312 11.4208 23.4592 9.85601 28.528 12.5152C32.8816 14.7808 34.8016 19.3888 33.3904 23.5216C32.5574 21.1132 30.8183 19.1243 28.5424 17.9776C23.44 15.352 16.9168 16.9216 13.9696 21.496C13.5706 22.1295 13.2514 22.8099 13.0192 23.5216L13.0048 23.4928Z" fill="url(#paint0_linear_809_53)" stroke="#334155" stroke-width="1.62" stroke-linejoin="round"/>
<path fill-rule="evenodd" clip-rule="evenodd" d="M64.3208 21.7931V16.281H69.3022C69.7766 16.281 70.2286 16.3247 70.6581 16.412C71.1096 16.4781 71.5048 16.6101 71.8437 16.8081C72.1826 17.0062 72.4536 17.2814 72.657 17.6339C72.8603 17.9863 72.962 18.4378 72.962 18.9882C72.962 19.9785 72.657 20.6936 72.047 21.1334C71.437 21.5732 70.6576 21.7931 69.7088 21.7931H64.3208ZM59 12.2543V35.8217H70.7254C71.8098 35.8217 72.8603 35.6897 73.8769 35.4256C74.9164 35.1615 75.8314 34.7548 76.6218 34.2052C77.435 33.6548 78.0789 32.9509 78.5533 32.0936C79.0277 31.212 79.2649 30.1771 79.2649 28.9887C79.2649 27.5149 78.8922 26.2606 78.1467 25.2256C77.4241 24.1693 76.3173 23.4324 74.8262 23.0149C75.9106 22.5081 76.7239 21.8586 77.2661 21.0664C77.8302 20.2742 78.1123 19.2839 78.1123 18.0955C78.1123 16.9955 77.9204 16.0713 77.5367 15.3227C77.1749 14.5751 76.6551 13.981 75.9774 13.5402C75.2997 13.0781 74.4864 12.748 73.5375 12.5499C72.5887 12.3518 71.5382 12.2528 70.386 12.2528L59 12.2543ZM64.3208 31.795V25.3247H70.1154C71.2676 25.3247 72.194 25.5887 72.8947 26.1169C73.5944 26.6237 73.9442 27.4819 73.9442 28.6916C73.9442 29.3081 73.8316 29.8145 73.6063 30.2106C73.403 30.6067 73.1204 30.9256 72.7586 31.1674C72.3968 31.3878 71.9787 31.5528 71.5043 31.6625C71.0299 31.7509 70.5331 31.795 70.0138 31.795H64.3208ZM98.159 35.8217V18.7567H93.3465V27.7014C93.3465 29.4402 93.0525 30.6946 92.4644 31.4645C91.8774 32.213 90.9291 32.5873 89.6194 32.5873C88.4673 32.5873 87.6649 32.246 87.2125 31.5635C86.761 30.8596 86.5352 29.8033 86.5352 28.3946V18.7567H81.7228V29.2538C81.7228 30.3101 81.8135 31.2781 81.9948 32.1577C82.1982 33.0159 82.537 33.7538 83.0115 34.3713C83.4859 34.9645 84.1297 35.4261 84.943 35.7562C85.7782 36.0863 86.8397 36.2514 88.1274 36.2514C89.144 36.2514 90.1382 36.0314 91.11 35.5916C92.0817 35.1509 92.8726 34.4353 93.4826 33.445H93.5842V35.8217H98.159ZM105.534 16.1149V12.2528H100.721V16.1149H105.534ZM100.721 18.7567V35.8217H105.534V18.7567H100.721ZM108.267 12.2528V35.8217H113.079V12.2528H108.267ZM128.113 27.2397C128.113 27.9436 128.045 28.6256 127.91 29.2858C127.774 29.946 127.548 30.5402 127.233 31.0683C126.916 31.5751 126.486 31.9829 125.944 32.2916C125.425 32.5984 124.77 32.7518 123.979 32.7518C123.234 32.7518 122.59 32.598 122.048 32.2902C121.528 31.9601 121.087 31.5421 120.726 31.0363C120.387 30.5081 120.138 29.914 119.979 29.2538C119.821 28.5936 119.743 27.9334 119.743 27.2732C119.743 26.5683 119.81 25.897 119.946 25.2591C120.104 24.5989 120.342 24.0159 120.657 23.5101C120.996 23.0033 121.437 22.596 121.979 22.2882C122.521 21.9805 123.188 21.8266 123.979 21.8266C124.77 21.8266 125.425 21.9805 125.944 22.2882C126.464 22.596 126.882 23.0033 127.198 23.5101C127.537 23.9936 127.774 24.5654 127.91 25.2256C128.045 25.8645 128.113 26.5358 128.113 27.2397ZM128.18 33.6431V35.8217H132.755V12.2528H127.944V20.8363H127.875C127.333 19.9994 126.588 19.3722 125.639 18.9547C124.712 18.514 123.729 18.2936 122.691 18.2936C121.403 18.2936 120.274 18.547 119.303 19.0538C118.331 19.5373 117.518 20.1863 116.863 21.0009C116.23 21.8154 115.744 22.762 115.405 23.8407C115.09 24.896 114.932 25.996 114.932 27.1407C114.932 28.329 115.09 29.4732 115.405 30.5732C115.744 31.6742 116.23 32.6538 116.863 33.512C117.518 34.348 118.342 35.0188 119.336 35.5247C120.331 36.0101 121.483 36.2528 122.792 36.2528C123.945 36.2528 124.973 36.0543 125.877 35.6572C126.803 35.2397 127.549 34.5683 128.113 33.6431H128.18ZM148.64 27.3052C148.64 28.0101 148.561 28.6926 148.403 29.3528C148.245 30.013 147.996 30.596 147.657 31.1018C147.319 31.6077 146.89 32.0149 146.37 32.3237C145.873 32.6091 145.263 32.7518 144.54 32.7518C143.84 32.7518 143.23 32.6091 142.71 32.3237C142.19 32.0149 141.761 31.6077 141.422 31.1018C141.083 30.596 140.835 30.013 140.677 29.3528C140.519 28.6926 140.44 28.0101 140.44 27.3052C140.44 26.579 140.519 25.8858 140.677 25.2256C140.835 24.5654 141.083 23.9829 141.422 23.4781C141.761 22.9713 142.19 22.5747 142.71 22.2882C143.23 21.9805 143.84 21.8266 144.54 21.8266C145.263 21.8266 145.873 21.9805 146.37 22.2882C146.89 22.5747 147.319 22.9708 147.657 23.4766C147.996 23.9824 148.245 24.5654 148.403 25.2256C148.561 25.8858 148.64 26.579 148.64 27.3052ZM135.798 12.2528V35.8217H140.372V33.6431H140.44C140.959 34.5897 141.727 35.2611 142.743 35.6572C143.76 36.0533 144.912 36.2514 146.2 36.2514C147.081 36.2514 147.951 36.0751 148.81 35.7227C149.668 35.3713 150.436 34.8324 151.114 34.1062C151.815 33.38 152.379 32.4557 152.808 31.3334C153.237 30.1887 153.452 28.8353 153.452 27.2732C153.452 25.7101 153.238 24.3674 152.809 23.245C152.38 22.1014 151.815 21.1664 151.114 20.4402C150.436 19.714 149.668 19.1751 148.81 18.8237C147.951 18.4703 147.081 18.2936 146.2 18.2936C145.115 18.2936 144.065 18.5028 143.048 18.9213C142.055 19.3174 141.264 19.9557 140.677 20.8363H140.608V12.2528H135.798ZM160.187 27.3052C160.187 26.6237 160.255 25.9528 160.391 25.2926C160.526 24.6324 160.752 24.0489 161.068 23.5421C161.407 23.0373 161.847 22.6305 162.389 22.3217C162.932 21.9916 163.609 21.8266 164.423 21.8266C165.236 21.8266 165.914 21.9916 166.456 22.3217C167.021 22.6295 167.461 23.0363 167.777 23.5421C168.116 24.0489 168.353 24.6324 168.489 25.2926C168.625 25.9528 168.692 26.6237 168.692 27.3052C168.692 27.9878 168.625 28.6591 168.489 29.3193C168.353 29.9572 168.116 30.5402 167.777 31.0683C167.461 31.5751 167.021 31.9829 166.456 32.2916C165.914 32.5984 165.236 32.7518 164.423 32.7518C163.609 32.7518 162.932 32.598 162.389 32.2902C161.847 31.9824 161.407 31.5751 161.068 31.0683C160.752 30.5402 160.526 29.9577 160.391 29.3208C160.255 28.6606 160.187 27.9887 160.187 27.3052ZM155.375 27.3052C155.375 28.6703 155.589 29.9033 156.018 31.0043C156.448 32.1033 157.059 33.0489 157.849 33.8412C158.639 34.612 159.588 35.2062 160.696 35.6237C161.802 36.0421 163.044 36.2514 164.423 36.2514C165.801 36.2514 167.044 36.0426 168.151 35.6251C169.28 35.2067 170.24 34.612 171.031 33.8412C171.822 33.0489 172.432 32.1028 172.86 31.0028C173.289 29.9028 173.503 28.6703 173.503 27.3052C173.503 25.9412 173.289 24.7091 172.86 23.6091C172.432 22.4868 171.822 21.5402 171.031 20.7693C170.24 19.9771 169.28 19.3722 168.151 18.9547C167.044 18.514 165.801 18.2936 164.423 18.2936C163.045 18.2936 161.803 18.514 160.696 18.9547C159.589 19.3722 158.64 19.9771 157.849 20.7693C157.059 21.5402 156.449 22.4868 156.019 23.6091C155.591 24.7091 155.376 25.9412 155.376 27.3052H155.375ZM181.476 18.7567V13.6392H176.662V18.7567H173.75V21.8921H176.664V31.9596C176.664 32.8179 176.811 33.5111 177.105 34.0392C177.398 34.5674 177.793 34.9751 178.29 35.2625C178.81 35.548 179.397 35.7344 180.053 35.8217C180.731 35.9324 181.442 35.9878 182.188 35.9878C182.662 35.9878 183.148 35.9766 183.644 35.9543C184.141 35.9319 184.593 35.8882 185 35.8232V32.1912C184.774 32.2348 184.537 32.2679 184.288 32.2902C184.039 32.3125 183.78 32.3237 183.509 32.3237C182.696 32.3237 182.154 32.1916 181.883 31.9276C181.612 31.6635 181.476 31.1353 181.476 30.3431V21.8921H185V18.7567H181.476Z" fill="#334155" stroke="#334155" stroke-linejoin="round"/>
<defs>
<filter id="filter0_f_809_53" x="45" y="34" width="145.814" height="19.1712" filterUnits="userSpaceOnUse" color-interpolation-filters="sRGB">
<feFlood flood-opacity="0" result="BackgroundImageFix"/>
<feBlend mode="normal" in="SourceGraphic" in2="BackgroundImageFix" result="shape"/>
<feGaussianBlur stdDeviation="3" result="effect1_foregroundBlur_809_53"/>
</filter>
<linearGradient id="paint0_linear_809_53" x1="12.1779" y1="4.27262" x2="12.1779" y2="23.915" gradientUnits="userSpaceOnUse">
<stop stop-color="#334155"/>
<stop offset="1" stop-color="#6A7792"/>
</linearGradient>
</defs>
</svg>
