<svg width="144" height="48" viewBox="0 0 144 48" fill="none" xmlns="http://www.w3.org/2000/svg">
<path d="M82.0625 24.1094V33.125C81.7083 33.5521 81.1615 34.0156 80.4219 34.5156C79.6823 35.0052 78.7292 35.4271 77.5625 35.7812C76.3958 36.1354 74.9844 36.3125 73.3281 36.3125C71.8594 36.3125 70.5208 36.0729 69.3125 35.5938C68.1042 35.1042 67.0625 34.3906 66.1875 33.4531C65.3229 32.5156 64.6562 31.3698 64.1875 30.0156C63.7188 28.651 63.4844 27.0938 63.4844 25.3438V23.9219C63.4844 22.1719 63.7083 20.6146 64.1562 19.25C64.6146 17.8854 65.2656 16.7344 66.1094 15.7969C66.9531 14.8594 67.9583 14.1458 69.125 13.6562C70.2917 13.1667 71.5885 12.9219 73.0156 12.9219C74.9948 12.9219 76.6198 13.2448 77.8906 13.8906C79.1615 14.526 80.1302 15.4115 80.7969 16.5469C81.474 17.6719 81.8906 18.9635 82.0469 20.4219H77.5C77.3854 19.651 77.1667 18.9792 76.8438 18.4062C76.5208 17.8333 76.0573 17.3854 75.4531 17.0625C74.8594 16.7396 74.0885 16.5781 73.1406 16.5781C72.3594 16.5781 71.6615 16.7396 71.0469 17.0625C70.4427 17.375 69.9323 17.8385 69.5156 18.4531C69.099 19.0677 68.7812 19.8281 68.5625 20.7344C68.3438 21.6406 68.2344 22.6927 68.2344 23.8906V25.3438C68.2344 26.5312 68.349 27.5833 68.5781 28.5C68.8073 29.4062 69.1458 30.1719 69.5938 30.7969C70.0521 31.4115 70.6146 31.875 71.2812 32.1875C71.9479 32.5 72.724 32.6562 73.6094 32.6562C74.349 32.6562 74.9635 32.5938 75.4531 32.4688C75.9531 32.3438 76.3542 32.1927 76.6562 32.0156C76.9688 31.8281 77.2083 31.651 77.375 31.4844V27.4531H73.0938V24.1094H82.0625ZM93.3438 36.3125C92.0312 36.3125 90.8542 36.1042 89.8125 35.6875C88.7708 35.2604 87.8854 34.6719 87.1562 33.9219C86.4375 33.1719 85.8854 32.3021 85.5 31.3125C85.1146 30.3125 84.9219 29.25 84.9219 28.125V27.5C84.9219 26.2188 85.1042 25.0469 85.4688 23.9844C85.8333 22.9219 86.3542 22 87.0312 21.2188C87.7188 20.4375 88.5521 19.8385 89.5312 19.4219C90.5104 18.9948 91.6146 18.7812 92.8438 18.7812C94.0417 18.7812 95.1042 18.9792 96.0312 19.375C96.9583 19.7708 97.7344 20.3333 98.3594 21.0625C98.9948 21.7917 99.474 22.6667 99.7969 23.6875C100.12 24.6979 100.281 25.8229 100.281 27.0625V28.9375H86.8438V25.9375H95.8594V25.5938C95.8594 24.9688 95.7448 24.4115 95.5156 23.9219C95.2969 23.4219 94.9635 23.026 94.5156 22.7344C94.0677 22.4427 93.4948 22.2969 92.7969 22.2969C92.2031 22.2969 91.6927 22.4271 91.2656 22.6875C90.8385 22.9479 90.4896 23.3125 90.2188 23.7812C89.9583 24.25 89.7604 24.8021 89.625 25.4375C89.5 26.0625 89.4375 26.75 89.4375 27.5V28.125C89.4375 28.8021 89.5312 29.4271 89.7188 30C89.9167 30.5729 90.1927 31.0677 90.5469 31.4844C90.9115 31.901 91.349 32.224 91.8594 32.4531C92.3802 32.6823 92.9688 32.7969 93.625 32.7969C94.4375 32.7969 95.1927 32.6406 95.8906 32.3281C96.599 32.0052 97.2083 31.5208 97.7188 30.875L99.9062 33.25C99.5521 33.7604 99.0677 34.25 98.4531 34.7188C97.849 35.1875 97.1198 35.5729 96.2656 35.875C95.4115 36.1667 94.4375 36.3125 93.3438 36.3125ZM107.344 22.7812V36H102.844V19.0938H107.078L107.344 22.7812ZM112.438 18.9844L112.359 23.1562C112.141 23.125 111.875 23.099 111.562 23.0781C111.26 23.0469 110.984 23.0312 110.734 23.0312C110.099 23.0312 109.547 23.1146 109.078 23.2812C108.62 23.4375 108.234 23.6719 107.922 23.9844C107.62 24.2969 107.391 24.6771 107.234 25.125C107.089 25.5729 107.005 26.0833 106.984 26.6562L106.078 26.375C106.078 25.2812 106.188 24.276 106.406 23.3594C106.625 22.4323 106.943 21.625 107.359 20.9375C107.786 20.25 108.307 19.7188 108.922 19.3438C109.536 18.9688 110.24 18.7812 111.031 18.7812C111.281 18.7812 111.536 18.8021 111.797 18.8438C112.057 18.875 112.271 18.9219 112.438 18.9844ZM119.062 22.7812V36H114.562V19.0938H118.797L119.062 22.7812ZM124.156 18.9844L124.078 23.1562C123.859 23.125 123.594 23.099 123.281 23.0781C122.979 23.0469 122.703 23.0312 122.453 23.0312C121.818 23.0312 121.266 23.1146 120.797 23.2812C120.339 23.4375 119.953 23.6719 119.641 23.9844C119.339 24.2969 119.109 24.6771 118.953 25.125C118.807 25.5729 118.724 26.0833 118.703 26.6562L117.797 26.375C117.797 25.2812 117.906 24.276 118.125 23.3594C118.344 22.4323 118.661 21.625 119.078 20.9375C119.505 20.25 120.026 19.7188 120.641 19.3438C121.255 18.9688 121.958 18.7812 122.75 18.7812C123 18.7812 123.255 18.8021 123.516 18.8438C123.776 18.875 123.99 18.9219 124.156 18.9844ZM131.031 19.0938V36H126.516V19.0938H131.031ZM126.234 14.6875C126.234 14.0312 126.464 13.4896 126.922 13.0625C127.38 12.6354 127.995 12.4219 128.766 12.4219C129.526 12.4219 130.135 12.6354 130.594 13.0625C131.062 13.4896 131.297 14.0312 131.297 14.6875C131.297 15.3438 131.062 15.8854 130.594 16.3125C130.135 16.7396 129.526 16.9531 128.766 16.9531C127.995 16.9531 127.38 16.7396 126.922 16.3125C126.464 15.8854 126.234 15.3438 126.234 14.6875ZM143.031 19.0938V22.2812H133.188V19.0938H143.031ZM135.625 14.9219H140.125V30.9062C140.125 31.3958 140.188 31.7708 140.312 32.0312C140.448 32.2917 140.646 32.474 140.906 32.5781C141.167 32.6719 141.495 32.7188 141.891 32.7188C142.172 32.7188 142.422 32.7083 142.641 32.6875C142.87 32.6562 143.062 32.625 143.219 32.5938L143.234 35.9062C142.849 36.0312 142.432 36.1302 141.984 36.2031C141.536 36.276 141.042 36.3125 140.5 36.3125C139.51 36.3125 138.646 36.151 137.906 35.8281C137.177 35.4948 136.615 34.9635 136.219 34.2344C135.823 33.5052 135.625 32.5469 135.625 31.3594V14.9219Z" fill="#334155"/>
<g clip-path="url(#clip0_806_521)">
<path d="M30.5577 4.12782C30.5577 4.12782 29.5737 3.24336 28.5694 2.39896C27.5651 1.55457 27.0011 0.38195 27.0011 0.38195L23.9965 2.34063C23.9965 2.34063 25.128 3.813 25.7636 4.42034C26.0343 4.67895 26.5485 5.30385 26.5485 5.30385C26.5485 5.30385 27.7908 4.6259 28.462 4.42851C29.1396 4.22924 30.5577 4.12782 30.5577 4.12782Z" fill="white" stroke="black" stroke-width="0.3"/>
<path d="M27.6973 3.84299C27.6973 3.84299 27.0971 3.26332 26.8337 2.93828C26.5624 2.60334 26.1008 1.86777 26.1008 1.86777" fill="white"/>
<path d="M27.6973 3.84299C27.6973 3.84299 27.0971 3.26332 26.8337 2.93828C26.5624 2.60334 26.1008 1.86777 26.1008 1.86777" stroke="#334155" stroke-width="0.3"/>
<path d="M40.6386 8.43913C40.6386 8.43913 40.4787 6.79478 40.0384 6.14576C39.5252 5.38916 38.6559 4.76254 37.8481 4.55867C35.6616 4.00687 32.7541 4.36975 32.7541 4.36975C32.7541 4.36975 35.1996 4.77152 36.3413 5.24915C36.7419 5.41675 37.4587 5.93457 37.4587 5.93457C37.4587 5.93457 38.7338 6.18266 39.7228 7.26721C40.7118 8.35176 39.8704 8.1107 39.8704 8.1107" fill="white"/>
<path d="M40.6386 8.43913C40.6386 8.43913 40.4787 6.79478 40.0384 6.14576C39.5252 5.38916 38.6559 4.76254 37.8481 4.55867C35.6616 4.00687 32.7541 4.36975 32.7541 4.36975C32.7541 4.36975 35.1996 4.77152 36.3413 5.24915C36.7419 5.41675 37.4587 5.93457 37.4587 5.93457C37.4587 5.93457 38.7338 6.18266 39.7228 7.26721C40.7118 8.35176 39.8704 8.1107 39.8704 8.1107" stroke="black" stroke-width="0.3"/>
<path d="M32.2123 20.8685L33.5711 23.1632C33.5711 23.1632 34.922 22.9235 36.7352 24.0234C38.5484 25.1233 39.6053 26.6481 39.6053 26.6481L38.9845 26.4944C38.9845 26.4944 37.4919 25.0699 36.6034 24.7192C35.715 24.3685 34.7494 24.2215 34.7494 24.2215C34.7494 24.2215 36.6835 25.3359 37.0797 25.5891C37.5513 25.8905 38.193 26.5193 38.193 26.5193L37.3615 26.3784C36.0224 25.5806 34.2241 24.5913 32.7296 24.4647C31.4769 24.385 29.8654 25.4767 29.8654 25.4767L30.2653 24.6909C30.2653 24.6909 31.2067 24.132 31.7026 23.7331C32.1984 23.3342 30.55 21.3972 30.55 21.3972C31.717 21.3211 30.7949 20.7622 32.2123 20.8685Z" fill="#304A70" stroke="black" stroke-width="0.3"/>
<path d="M26.7634 22.5584L27.6863 25.4751C27.6863 25.4751 28.8587 25.4519 30.7882 26.305C32.7178 27.1582 34.1767 28.4671 34.1767 28.4671L33.3172 28.5007C33.3172 28.5007 31.8526 27.3595 31.0228 26.9844C30.427 26.7151 29.1395 26.4773 29.1395 26.4773C29.1395 26.4773 30.6898 27.257 31.4289 27.7154C31.8372 27.9686 32.6098 28.5482 32.6098 28.5482L31.7318 28.5544C31.7318 28.5544 29.372 27.2256 28.084 26.9205C27.2088 26.7132 27.1699 26.5434 25.3997 26.808C24.5719 26.9317 24.0339 27.1443 24.0339 27.1443L24.3541 26.6943C24.3541 26.6943 24.8275 26.3752 25.0765 26.238C25.3876 26.0667 26.0375 25.7817 26.0375 25.7817L25.1035 23.0511C26.222 22.7069 25.3627 22.7821 26.7634 22.5584Z" fill="#304A70" stroke="black" stroke-width="0.3"/>
<path d="M48.8173 13.6521C48.2304 11.8355 46.9886 10.1063 45.4156 9.11097C43.6995 8.02506 41.4337 7.70265 39.515 7.98315C38.839 8.43776 38.8581 6.4402 36.0388 5.1814C33.2196 3.92261 28.7946 3.61965 24.4858 5.49216C19.8748 7.49599 25.9753 9.24121 24.2217 13.4331C20.5473 22.5134 28.2792 22.575 28.2792 22.575C28.2792 22.575 30.4482 21.5128 31.2633 21.5414C32.0785 21.5699 35.2239 19.9724 37.0298 19.926C38.8357 19.8797 39.7928 21.8849 45.7356 20.3035C47.7685 19.7626 48.7544 17.9095 48.7544 17.9095C48.7544 17.9095 49.2536 15.0026 48.8173 13.6521Z" fill="#596678" stroke="black" stroke-width="0.3"/>
<path d="M44.6685 20.6185C44.6685 20.6185 42.0371 19.5854 40.2543 18.7408C38.4716 17.8962 37.794 14.7109 35.0262 13.8992C32.2585 13.0874 29.3546 14.9757 28.1464 16.9353C26.9381 18.895 23.5758 20.9849 23.5758 20.9849C23.5758 20.9849 23.3885 21.8952 24.5276 22.65C25.6666 23.4048 25.2902 23.4021 25.2902 23.4021C25.2902 23.4021 28.8339 22.9346 30.4663 22.3196C32.0986 21.7046 35.5655 21.0889 38.1653 20.7983C40.3192 20.5575 40.9316 21.397 44.6685 20.6185Z" fill="#72849D" stroke="black" stroke-width="0.3"/>
<path d="M21.2638 20.2894C21.2638 20.2894 19.1894 28.4095 17.0304 33.1074C14.8715 37.8053 8.98371 47.3151 8.98371 47.3151L7.0357 44.3378L12.3188 35.7546L6.53098 43.0935L4.78836 39.8156C4.78836 39.8156 11.3192 33.2101 13.688 29.1259C16.0567 25.0416 18.1795 16.7638 18.1795 16.7638L21.2638 20.2894Z" fill="#596678" stroke="black" stroke-width="0.3"/>
<path d="M31.931 5.66861C31.931 5.66861 35.1373 6.54055 36.0924 9.82174C37.0475 13.1029 30.9228 18.9053 29.965 20.1636C29.0073 21.422 27.6518 23.109 27.6518 23.109C27.6518 23.109 23.5319 25.2477 20.5055 26.673C17.7001 27.9942 14.9722 28.7055 14.9722 28.7055C14.9722 28.7055 14.8836 28.6513 14.5957 27.0261C15.774 25.3503 18.1724 23.013 19.6196 21.8647C17.5427 22.7707 15.8835 23.7259 14.2699 25.909C14.2699 25.909 14.0798 24.0696 14.0419 23.2679C14.3769 22.5032 18.3825 19.0808 18.3825 19.0808C16.6552 19.5818 15.4626 20.6239 13.9468 22.255C13.9468 22.255 13.8888 20.4198 13.9578 19.4645C14.223 18.9451 16.9915 16.9174 16.9915 16.9174C15.8752 17.3239 15.309 17.62 14.0089 18.5384C14.0089 18.5384 14.8369 13.5089 20.5935 8.3815C26.3501 3.25408 31.931 5.66861 31.931 5.66861Z" fill="#334155" stroke="black" stroke-width="0.3"/>
<path d="M38.027 12.5143C38.027 12.5143 40.6167 10.3225 43.1222 11.0853C45.6278 11.848 46.0936 14.3322 45.9319 14.8217C45.7703 15.3113 44.7394 15.6393 44.0043 15.8634C43.2691 16.0874 41.3883 15.451 40.432 14.8009C39.4757 14.1508 38.027 12.5143 38.027 12.5143Z" fill="#334155" stroke="black" stroke-width="0.3"/>
<path d="M42.3002 11.3048C41.2773 11.3417 40.4958 12.2328 40.5546 13.2951C40.6135 14.3574 41.4904 15.1886 42.5133 15.1517C43.5362 15.1147 44.3177 14.2236 44.2589 13.1613L42.3002 11.3048Z" fill="#6581AA" stroke="black" stroke-width="0.3"/>
<path d="M41.9434 13.6055C41.8771 14.1961 42.2862 14.7416 42.8572 14.8238C43.4281 14.906 43.9448 14.4939 44.0111 13.9033C44.0774 13.3126 43.6683 12.7672 43.0973 12.6849C42.5264 12.6027 42.0097 13.0149 41.9434 13.6055Z" fill="black"/>
<path d="M50.8382 15.5916C53.2179 17.6753 52.8078 20.6095 52.4417 20.9428C52.0756 21.276 51.7872 20.9367 51.2071 20.6421C50.6269 20.3474 49.2088 19.5086 47.929 19.2443C46.6492 18.98 46.2074 19.26 46.0399 18.9376C45.8725 18.6152 45.8634 17.6316 46.046 16.7602C46.2287 15.8888 46.3502 14.838 46.8532 14.7374C47.3562 14.6369 49.9537 14.7419 50.8382 15.5916Z" fill="#304A70" stroke="black" stroke-width="0.3"/>
<path d="M40.4131 7.90581C40.4131 7.90581 39.245 9.50765 34.7604 9.84206C30.2758 10.1765 25.1271 5.30633 25.1271 5.30633L21.6712 8.06166C21.6712 8.06166 30.4194 11.4222 33.4185 11.4497C36.4175 11.4772 40.3788 8.20003 40.3788 8.20003" fill="white"/>
<path d="M40.4131 7.90581C40.4131 7.90581 39.245 9.50765 34.7604 9.84206C30.2758 10.1765 25.1271 5.30633 25.1271 5.30633L21.6712 8.06166C21.6712 8.06166 30.4194 11.4222 33.4185 11.4497C36.4175 11.4772 40.3788 8.20003 40.3788 8.20003" stroke="black" stroke-width="0.3"/>
<path d="M24.2397 6.69562L26.5094 8.22393L25.9115 8.60587L23.659 7.10468L24.2397 6.69562Z" fill="#334155"/>
<path d="M47.7746 11.3189C47.7746 11.3189 48.1975 11.9919 48.3664 12.3519C48.5522 12.7478 48.8264 13.5828 48.8264 13.5828C48.8264 13.5828 45.0865 11.0336 43.7335 10.3218C42.3394 9.58828 39.5785 7.908 39.5785 7.908C39.5785 7.908 39.9029 7.79428 40.0721 7.77581C40.3264 7.74808 40.8397 7.80973 40.8397 7.80973C40.8397 7.80973 42.8942 8.08578 44.1895 8.79326C45.4847 9.50075 47.7746 11.3189 47.7746 11.3189Z" fill="white" stroke="black" stroke-width="0.3"/>
<path d="M25.8705 6.65854L23.6981 8.28457L24.3204 8.64198L26.4774 7.0438L25.8705 6.65854Z" fill="#334155"/>
</g>
<defs>
<clipPath id="clip0_806_521">
<rect width="50" height="48" fill="white" transform="translate(4)"/>
</clipPath>
</defs>
</svg>
