<svg width="115" height="48" viewBox="0 0 115 48" fill="none" xmlns="http://www.w3.org/2000/svg">
<g clip-path="url(#clip0_804_334)">
<path d="M68.2805 16.6101C65.784 16.6101 63.9235 17.8372 63.9235 20.7882C63.9235 23.0113 65.148 24.5562 68.1459 24.5562C70.6873 24.5562 72.4137 23.0604 72.4137 20.6964C72.4137 18.0183 70.8689 16.6101 68.2805 16.6101ZM63.2875 37.4536C62.6963 38.1788 62.1073 38.951 62.1073 39.8598C62.1073 41.6755 64.4207 42.2202 67.5996 42.2202C70.2349 42.2202 73.8219 42.0365 73.8219 39.589C73.8219 38.1318 72.096 38.0421 69.9151 37.9054L63.2875 37.4536ZM76.728 16.7468C77.5435 17.7924 78.408 19.2454 78.408 21.3344C78.408 26.3724 74.4579 29.3254 68.737 29.3254C67.2819 29.3254 65.9656 29.1438 65.148 28.9158L63.6506 31.3226L68.0989 31.5939C75.9558 32.0948 80.5863 32.3233 80.5863 38.3598C80.5863 43.5814 76.0007 46.5329 68.0989 46.5329C59.8816 46.5329 56.7475 44.4438 56.7475 40.8564C56.7475 38.8127 57.6563 37.7259 59.2461 36.2244C57.7461 35.5925 57.2489 34.4572 57.2489 33.2301C57.2489 32.2315 57.7461 31.3226 58.5652 30.4586C59.3823 29.5967 60.2896 28.7343 61.38 27.7357C59.1563 26.6452 57.4748 24.2833 57.4748 20.9228C57.4748 15.7012 60.925 12.1158 67.873 12.1158C69.8254 12.1158 71.0056 12.2953 72.0511 12.5708H80.9061V16.4285L76.7285 16.7468" fill="#334155"/>
<mask id="mask0_804_334" style="mask-type:luminance" maskUnits="userSpaceOnUse" x="82" y="0" width="14" height="36">
<path d="M82.9565 0.41217H96V36H82.9565V0.41217Z" fill="white"/>
</mask>
<g mask="url(#mask0_804_334)">
<path d="M88.8934 8.49443C86.305 8.49443 84.8071 6.99704 84.8071 4.40609C84.8071 1.81983 86.305 0.411652 88.8934 0.411652C91.5282 0.411652 93.0266 1.82035 93.0266 4.40609C93.0266 6.99652 91.5287 8.49443 88.8934 8.49443ZM83.0358 35.784V32.1965L85.3513 31.8803C85.9873 31.789 86.0786 31.6523 86.0786 30.9694V17.6207C86.0786 17.1235 85.9424 16.8037 85.488 16.669L83.0358 15.805L83.5351 12.1283H92.9348V30.9704C92.9348 31.7003 92.9797 31.7896 93.6626 31.8814L95.9776 32.1976V35.7845L83.0358 35.784Z" fill="#334155"/>
</g>
<mask id="mask1_804_334" style="mask-type:luminance" maskUnits="userSpaceOnUse" x="95" y="4" width="19" height="32">
<path d="M95.4783 4.69565H113.933V36H95.4783V4.69565Z" fill="white"/>
</mask>
<g mask="url(#mask1_804_334)">
<path d="M113.933 34.0226C111.98 34.9748 109.121 35.8388 106.531 35.8388C101.128 35.8388 99.0856 33.6605 99.0856 28.5266V16.6325C99.0856 16.3591 99.0856 16.1781 98.7204 16.1781H95.5414V12.1367C99.54 11.6823 101.128 9.68295 101.627 4.73425H105.942V11.1829C105.942 11.5007 105.942 11.6369 106.304 11.6369H112.706V16.1781H105.942V27.0287C105.942 29.7083 106.577 30.7518 109.029 30.7518C110.301 30.7518 111.617 30.4341 112.706 30.0266L113.933 34.0226Z" fill="#334155"/>
</g>
<mask id="mask2_804_334" style="mask-type:luminance" maskUnits="userSpaceOnUse" x="0" y="0" width="48" height="49">
<path d="M0 0.41217H48V48.4122H0V0.41217Z" fill="white"/>
</mask>
<g mask="url(#mask2_804_334)">
<path d="M46.655 22.2945L25.8934 1.35524C25.6091 1.06837 25.2715 0.840815 24.9 0.685559C24.5285 0.530304 24.1303 0.450394 23.7282 0.450394C23.326 0.450394 22.9278 0.530304 22.5563 0.685559C22.1848 0.840815 21.8473 1.06837 21.563 1.35524L17.2518 5.70318L22.7197 11.2205C23.3625 10.9994 24.0538 10.9645 24.7153 11.1197C25.3768 11.2748 25.9819 11.6138 26.4621 12.0983C26.9446 12.5858 27.2815 13.2003 27.4342 13.8717C27.587 14.5431 27.5495 15.2443 27.3261 15.8952L32.5967 21.2131C33.2419 20.9868 33.9373 20.9486 34.603 21.1028C35.2687 21.2571 35.8779 21.5975 36.3605 22.0851C36.6992 22.4261 36.968 22.8311 37.1513 23.2769C37.3347 23.7228 37.429 24.2008 37.429 24.6835C37.429 25.1662 37.3347 25.6441 37.1513 26.09C36.968 26.5359 36.6992 26.9409 36.3605 27.2819C36.0223 27.6236 35.6206 27.8947 35.1784 28.0796C34.7362 28.2646 34.2621 28.3598 33.7834 28.3598C33.3047 28.3598 32.8307 28.2646 32.3884 28.0796C31.9462 27.8947 31.5445 27.6236 31.2063 27.2819C30.6982 26.7688 30.3519 26.1156 30.2108 25.4046C30.0698 24.6935 30.1404 23.9562 30.4137 23.2855L25.4979 18.3271V31.3746C25.8548 31.5515 26.1805 31.7861 26.4621 32.0692C27.1454 32.7589 27.5293 33.694 27.5293 34.669C27.5293 35.644 27.1454 36.5791 26.4621 37.2687C25.0377 38.7033 22.7301 38.7033 21.3099 37.2687C20.9711 36.9275 20.7022 36.5223 20.5188 36.0762C20.3354 35.6301 20.241 35.1519 20.241 34.669C20.241 34.186 20.3354 33.7078 20.5188 33.2617C20.7022 32.8157 20.9711 32.4104 21.3099 32.0692C21.65 31.7241 22.0554 31.4516 22.5021 31.2678V18.0987C22.0554 17.9149 21.65 17.6423 21.3099 17.2972C20.7984 16.7815 20.4504 16.1241 20.3103 15.4084C20.1702 14.6927 20.2443 13.9512 20.5231 13.2781L15.1325 7.83874L0.896879 22.1977C0.612399 22.4845 0.386728 22.825 0.232759 23.1998C0.0787905 23.5745 -0.000457764 23.9762 -0.000457764 24.3819C-0.000457764 24.7876 0.0787905 25.1893 0.232759 25.5641C0.386728 25.9389 0.612399 26.2794 0.896879 26.5662L21.6584 47.5075C21.9428 47.7944 22.2803 48.022 22.6518 48.1772C23.0233 48.3325 23.4215 48.4124 23.8237 48.4124C24.2258 48.4124 24.624 48.3325 24.9955 48.1772C25.367 48.022 25.7046 47.7944 25.9889 47.5075L46.655 26.6651C47.2295 26.0855 47.5523 25.2994 47.5523 24.4798C47.5523 23.6602 47.2295 22.8741 46.655 22.2945Z" fill="#334155"/>
</g>
</g>
<defs>
<clipPath id="clip0_804_334">
<rect width="114.261" height="48" fill="white"/>
</clipPath>
</defs>
</svg>
