<svg width="144" height="48" viewBox="0 0 144 48" fill="none" xmlns="http://www.w3.org/2000/svg">
<g clip-path="url(#clip0_804_368)">
<path fill-rule="evenodd" clip-rule="evenodd" d="M24.427 0C10.9195 0 0 11 0 24.6085C0 35.4865 6.9965 44.6945 16.7025 47.9535C17.916 48.1985 18.3605 47.424 18.3605 46.7725C18.3605 46.202 18.3205 44.2465 18.3205 42.209C11.5255 43.676 10.1105 39.2755 10.1105 39.2755C9.0185 36.4235 7.4005 35.6905 7.4005 35.6905C5.1765 34.183 7.5625 34.183 7.5625 34.183C10.0295 34.346 11.324 36.709 11.324 36.709C13.5075 40.457 17.026 39.398 18.4415 38.746C18.6435 37.157 19.291 36.057 19.9785 35.446C14.559 34.8755 8.857 32.757 8.857 23.3045C8.857 20.6155 9.827 18.4155 11.364 16.7045C11.1215 16.0935 10.272 13.567 11.607 10.1855C11.607 10.1855 13.6695 9.5335 18.32 12.7115C20.311 12.1728 22.3644 11.8988 24.427 11.8965C26.4895 11.8965 28.592 12.182 30.5335 12.7115C35.1845 9.5335 37.247 10.1855 37.247 10.1855C38.582 13.567 37.732 16.0935 37.4895 16.7045C39.067 18.4155 39.997 20.6155 39.997 23.3045C39.997 32.757 34.295 34.8345 28.835 35.446C29.725 36.22 30.493 37.6865 30.493 40.009C30.493 43.309 30.453 45.9575 30.453 46.772C30.453 47.424 30.898 48.1985 32.111 47.954C41.817 44.694 48.8135 35.4865 48.8135 24.6085C48.8535 11 37.894 0 24.427 0Z" fill="#334155"/>
</g>
<g clip-path="url(#clip1_804_368)">
<path d="M75.11 22.6996H67.9665C67.7824 22.6996 67.6337 22.8613 67.6337 23.0615V26.8599C67.6337 27.06 67.7824 27.2243 67.9665 27.2243H70.7535V31.944C70.7535 31.944 70.1282 32.175 68.3983 32.175C66.357 32.175 63.5062 31.364 63.5062 24.5475C63.5062 17.7309 66.475 16.8326 69.2621 16.8326C71.6739 16.8326 72.7146 17.2946 73.3754 17.5179C73.5831 17.5872 73.7743 17.3613 73.7743 17.1612L74.5719 13.4911C74.5719 13.3961 74.5436 13.2832 74.4445 13.2088C74.1754 13.0009 72.5377 12.0026 68.3983 12.0026C63.6313 12 58.7391 14.2071 58.7391 24.8118C58.7391 35.4165 64.3393 36.9974 69.0591 36.9974C72.9672 36.9974 75.3365 35.1804 75.3365 35.1804C75.4333 35.1213 75.4451 34.9725 75.4451 34.9057V23.064C75.4451 22.8639 75.2964 22.7022 75.1123 22.7022L75.11 22.6996Z" fill="#334155"/>
<path d="M111.923 13.2704C111.923 13.0676 111.776 12.906 111.592 12.906H107.571C107.387 12.906 107.238 13.0702 107.238 13.2704V21.7218H100.97V13.2704C100.97 13.0676 100.821 12.906 100.637 12.906H96.616C96.432 12.906 96.2833 13.0702 96.2833 13.2704V36.1582C96.2833 36.3609 96.432 36.5252 96.616 36.5252H100.637C100.821 36.5252 100.97 36.3609 100.97 36.1582V26.3671H107.238L107.226 36.1556C107.226 36.3584 107.375 36.5226 107.559 36.5226H111.59C111.774 36.5226 111.92 36.3584 111.923 36.1556V13.2704Z" fill="#334155"/>
<path d="M82.6995 16.2732C82.6995 14.6974 81.5384 13.4244 80.106 13.4244C78.6735 13.4244 77.5124 14.6974 77.5124 16.2732C77.5124 17.849 78.6735 19.122 80.106 19.122C81.5384 19.122 82.6995 17.8464 82.6995 16.2732Z" fill="#334155"/>
<path d="M82.4116 31.3307V20.7645C82.4116 20.5643 82.2629 20.4001 82.0789 20.4001H78.0693C77.8853 20.4001 77.7201 20.6054 77.7201 20.8081V35.9452C77.7201 36.3892 77.9749 36.5226 78.3053 36.5226H81.9184C82.3148 36.5226 82.4116 36.3122 82.4116 35.9375V31.3307Z" fill="#334155"/>
<path d="M127.205 20.436H123.215C123.031 20.436 122.882 20.6002 122.882 20.803V32.0262C122.882 32.0262 121.867 32.8321 120.43 32.8321C118.993 32.8321 118.608 32.1211 118.608 30.589V20.8004C118.608 20.5977 118.46 20.4334 118.275 20.4334H114.226C114.044 20.4334 113.893 20.5977 113.893 20.8004V31.3281C113.893 35.8785 116.225 36.9923 119.434 36.9923C122.066 36.9923 124.189 35.4114 124.189 35.4114C124.189 35.4114 124.291 36.2455 124.336 36.343C124.381 36.4405 124.501 36.5406 124.628 36.5406L127.205 36.5278C127.387 36.5278 127.538 36.3635 127.538 36.1633V20.8004C127.538 20.5977 127.387 20.4334 127.203 20.4334L127.205 20.436Z" fill="#334155"/>
<path d="M138.115 19.9201C135.848 19.9201 134.306 21.0211 134.306 21.0211V13.2704C134.306 13.0676 134.158 12.906 133.974 12.906H129.941C129.757 12.906 129.608 13.0702 129.608 13.2704V36.1582C129.608 36.3609 129.757 36.5252 129.941 36.5252H132.739C132.865 36.5252 132.961 36.4533 133.032 36.3301C133.101 36.207 133.202 35.2753 133.202 35.2753C133.202 35.2753 134.852 36.9743 137.974 36.9743C141.639 36.9743 143.741 34.9519 143.741 27.8967C143.741 20.8415 140.383 19.9201 138.115 19.9201ZM136.541 32.8141C135.156 32.7679 134.219 32.0852 134.219 32.0852V24.8375C134.219 24.8375 135.144 24.219 136.282 24.1086C137.719 23.9675 139.104 24.4397 139.104 28.1688C139.104 32.1006 138.479 32.8757 136.544 32.8141H136.541Z" fill="#334155"/>
<path d="M93.9706 20.3975H90.9546C90.9546 20.3975 90.9498 16.0653 90.9498 16.0627C90.9498 15.8985 90.872 15.8163 90.6973 15.8163H86.5863C86.4259 15.8163 86.3409 15.8933 86.3409 16.0602V20.5387C86.3409 20.5387 84.2807 21.0802 84.1414 21.1238C84.0022 21.1674 83.9007 21.306 83.9007 21.4728V24.2883C83.9007 24.491 84.0494 24.6527 84.2335 24.6527H86.3409V31.4231C86.3409 36.4533 89.5858 36.9461 91.7735 36.9461C92.7741 36.9461 93.9706 36.5971 94.1688 36.5175C94.2891 36.4687 94.3576 36.3353 94.3576 36.189V33.0938C94.3599 32.8911 94.2042 32.7294 94.0272 32.7294C93.8502 32.7294 93.4018 32.8064 92.9393 32.8064C91.4572 32.8064 90.9546 32.057 90.9546 31.0869C90.9546 30.1167 90.9546 24.6527 90.9546 24.6527H93.9706C94.1546 24.6527 94.3033 24.4885 94.3033 24.2883V20.7619C94.3033 20.5592 94.1546 20.3975 93.9706 20.3975Z" fill="#334155"/>
</g>
<defs>
<clipPath id="clip0_804_368">
<rect width="49" height="48" fill="white"/>
</clipPath>
<clipPath id="clip1_804_368">
<rect width="85" height="25" fill="white" transform="translate(58.7391 12)"/>
</clipPath>
</defs>
</svg>
