<svg width="157" height="48" viewBox="0 0 157 48" fill="none" xmlns="http://www.w3.org/2000/svg">
<g clip-path="url(#clip0_804_381)">
<path d="M49.0137 18.9994L48.9465 18.8202L42.1626 1.12435C42.0253 0.776884 41.781 0.482129 41.465 0.282752C41.2292 0.131831 40.9614 0.0382416 40.683 0.00948266C40.4045 -0.0192763 40.1232 0.0175966 39.8616 0.117145C39.6 0.216694 39.3653 0.37615 39.1764 0.582733C38.9875 0.789315 38.8496 1.03728 38.7738 1.30675L34.1947 15.3258H15.6508L11.0716 1.30675C10.9953 1.03768 10.8571 0.790184 10.6681 0.583997C10.4791 0.37781 10.2445 0.218637 9.9831 0.119169C9.72169 0.0197018 9.44065 -0.0173075 9.1624 0.011094C8.88415 0.0394954 8.61638 0.132521 8.38046 0.282752C8.06449 0.482129 7.82017 0.776884 7.68286 1.12435L0.902114 18.8234L0.831714 18.9994C-0.144515 21.5508 -0.264782 24.3504 0.489041 26.976C1.24286 29.6017 2.82991 31.9112 5.01089 33.5561L5.03649 33.5753L5.09408 33.6201L15.414 41.3544L20.534 45.2232L23.6443 47.5752C24.0093 47.8509 24.4542 48 24.9115 48C25.3689 48 25.8138 47.8509 26.1787 47.5752L29.2891 45.2232L34.409 41.3544L44.8026 33.5753L44.8314 33.5529C47.0122 31.9086 48.5995 29.5999 49.3538 26.9748C50.1082 24.3498 49.9889 21.5507 49.0137 18.9994Z" fill="#334155"/>
<path d="M75.8748 20.8073H80.131C79.421 16.2299 75.5029 13.0417 70.404 13.0417C64.3709 13.0417 59.8438 17.5283 59.8438 25.0426C59.8438 32.4227 64.1673 37 70.5274 37C76.2354 37 80.3216 33.2863 80.3216 27.2746V24.4737H70.9664V27.7754H76.2802C76.2129 31.1016 74.0176 33.207 70.5498 33.207C66.6896 33.207 64.044 30.2814 64.044 24.9972C64.044 19.7471 66.7345 16.8328 70.4601 16.8328C73.2403 16.8328 75.1423 18.3353 75.8748 20.8073Z" fill="#334155"/>
<path d="M83.8367 36.4792H87.562V19.1784H83.8367V36.4792ZM85.7156 16.429C86.8993 16.429 87.866 15.4358 87.866 14.2201C87.866 13.0044 86.8993 12 85.7156 12C84.5319 12 83.5549 12.9913 83.5549 14.2201C83.5549 15.4489 84.5148 16.429 85.7087 16.429H85.7156Z" fill="#334155"/>
<path d="M100.484 18.8919H97.078V14.6042H93.0097V18.8919H90.5605V22.1472H93.0097V32.0772C92.9873 35.4367 95.3488 37.0943 98.4042 36.9959C99.2182 36.9791 100.025 36.838 100.799 36.5771L100.113 33.2851C99.7241 33.3895 99.3245 33.4446 98.9228 33.4492C97.8987 33.4492 97.078 33.0767 97.078 31.3786V22.1375H100.484V18.8919Z" fill="#334155"/>
<path d="M104.033 36.4792H119.122V32.9199H108.431V13.0417H104.033V36.4792Z" fill="#334155"/>
<path d="M127 37C129.942 37 131.698 35.7017 132.505 34.2204H132.651V36.6435H136.905V24.8351C136.905 20.172 132.865 18.7708 129.288 18.7708C125.345 18.7708 122.318 20.4237 121.342 23.6398L125.469 24.1927C125.906 22.9859 127.152 21.9526 129.318 21.9526C131.37 21.9526 132.493 22.9402 132.493 24.675V24.7436C132.493 25.9371 131.161 25.9962 127.853 26.3279C124.217 26.6958 120.738 27.7176 120.738 31.6925C120.726 35.1622 123.423 37 127 37ZM128.453 33.9497C126.609 33.9497 125.29 33.1567 125.29 31.6296C125.29 30.032 126.767 29.3667 128.734 29.1017C129.895 28.953 132.215 28.6766 132.786 28.2419V30.3199C132.798 32.2778 131.113 33.944 128.453 33.944V33.9497Z" fill="#334155"/>
<path d="M139.599 36.6877H143.833V33.8938H144.082C144.761 35.1873 146.176 37 149.316 37C153.621 37 156.844 33.685 156.844 27.8444C156.844 21.9329 153.526 18.7232 149.304 18.7232C146.081 18.7232 144.737 20.6049 144.082 21.8869H143.9V13.0417H139.599V36.6877ZM143.821 27.8214C143.821 24.3722 145.343 22.1513 148.114 22.1513C150.98 22.1513 152.456 24.5178 152.456 27.8214C152.456 31.1249 150.958 33.57 148.114 33.57C145.367 33.57 143.821 31.261 143.821 27.8214Z" fill="#334155"/>
</g>
<defs>
<clipPath id="clip0_804_381">
<rect width="156.844" height="48" fill="white"/>
</clipPath>
</defs>
</svg>
