<svg width="176" height="48" viewBox="0 0 176 48" fill="none" xmlns="http://www.w3.org/2000/svg">
<path fill-rule="evenodd" clip-rule="evenodd" d="M34.1924 23.13C34.1924 32.64 26.6552 40.3494 17.3577 40.3494C8.06023 40.3494 0.523071 32.64 0.523071 23.13C0.523071 13.6198 8.06023 5.9103 17.3577 5.9103C26.6552 5.9103 34.1924 13.6198 34.1924 23.13Z" fill="#334155"/>
<path d="M1.20911 27.3947C1.20911 27.3947 -0.00960356 9.4377 16.5366 8.92458L15.3823 7.00061L6.40383 10.0149L3.83849 12.9649L1.5939 17.2619L0.311157 22.2642L0.695951 25.599" fill="#52637B"/>
<path d="M5.82737 11.3832C2.8737 14.4054 1.04593 18.5781 1.04593 23.1943C1.04593 27.8095 2.8737 31.9827 5.82737 35.0043C8.78247 38.026 12.855 39.8905 17.3574 39.8905C21.8599 39.8905 25.9328 38.026 28.8876 35.0043C31.8411 31.9827 33.6693 27.8095 33.6693 23.1943C33.6693 18.5781 31.8411 14.4054 28.8876 11.3832C25.9328 8.36221 21.8599 6.49769 17.3574 6.4973C12.855 6.49769 8.78247 8.36221 5.82737 11.3832ZM5.07972 35.7353C1.94065 32.525 0 28.0883 0 23.1943C0 18.2995 1.94065 13.8632 5.07972 10.6527C8.21806 7.44159 12.5623 5.45124 17.3574 5.45182C22.1526 5.45124 26.4973 7.44159 29.6351 10.6527C32.7744 13.8632 34.7153 18.2999 34.7149 23.1943C34.7153 28.0883 32.7744 32.525 29.6351 35.7353C26.4973 38.9462 22.1526 40.9363 17.3574 40.9363C12.5623 40.9363 8.21806 38.9462 5.07972 35.7353Z" fill="#231F20"/>
<path fill-rule="evenodd" clip-rule="evenodd" d="M24.4442 23.2254L21.8788 23.6102L18.4156 23.995L16.1709 24.0591L13.9905 23.995L12.3229 23.4819L10.8479 21.8787L9.6935 18.6079L9.43699 17.9024L7.89782 17.3895L6.99994 15.9144L6.35864 13.798L7.0642 11.9381L8.73151 11.3609L10.0783 12.0024L10.7197 13.4132L11.4893 13.2849L11.7458 12.9643L11.4893 11.4892L11.4251 9.62933L11.8099 7.0641L11.7948 5.59881L12.9642 3.72929L15.0165 2.25418L18.608 0.715005L22.5841 1.2922L26.0473 3.79336L27.6507 6.35858L28.6768 8.21848L28.9332 12.836L28.1636 16.8123L26.7528 20.3395L25.406 22.1994" fill="#D1DAE6"/>
<path fill-rule="evenodd" clip-rule="evenodd" d="M22.2636 34.3202L13.0925 34.705V36.2442L13.8621 41.6313L13.4773 42.0803L7.06418 39.8997L6.61512 39.1301L5.97382 31.8833L4.49899 27.5222L4.17822 26.4962L9.30868 22.969L10.9121 22.3275L12.3229 24.0591L13.5414 25.1494L14.9524 25.5983L15.5937 25.7907L16.3633 29.1255L16.9404 29.8309L18.4156 29.3179L17.3893 31.3061L22.9689 33.9354L22.2636 34.3202Z" fill="#334155"/>
<path fill-rule="evenodd" clip-rule="evenodd" d="M7.06421 11.9381L8.73152 11.3609L10.0783 12.0023L10.7198 13.4132L11.4893 13.2849L11.6817 12.5153L11.2969 11.0404L11.6817 7.51296L11.361 5.58899L12.5154 4.24221L15.0165 2.25417L14.311 1.29219L10.7838 3.02376L9.30872 4.17814L8.47502 5.97378L7.19235 7.70536L6.80756 9.75765L7.06421 11.9381Z" fill="#334155"/>
<path fill-rule="evenodd" clip-rule="evenodd" d="M9.69348 5.90973C9.69348 5.90973 10.6555 3.5369 14.5034 2.38251C18.3513 1.22813 14.6958 1.54867 14.6958 1.54867L10.5273 3.1521L8.92389 4.75534L8.21857 6.03806L9.69348 5.90973Z" fill="#D8D9DC"/>
<path fill-rule="evenodd" clip-rule="evenodd" d="M7.76954 11.4892C7.76954 11.4892 6.42276 6.99984 11.5534 6.35859L11.361 5.589L7.8338 6.42285L6.80756 9.75766L7.06421 11.9381L7.76954 11.4892Z" fill="#D8D9DC"/>
<path fill-rule="evenodd" clip-rule="evenodd" d="M9.82178 17.4535L10.6615 16.6399C10.6615 16.6399 11.0405 16.6839 11.1045 17.1328C11.1686 17.5819 11.361 21.6222 14.1186 23.8028C14.3702 24.0018 12.0665 23.4819 12.0665 23.4819L10.0142 20.2754" fill="#ECF2FB"/>
<path fill-rule="evenodd" clip-rule="evenodd" d="M21.6225 16.2351C21.6225 16.2351 21.772 14.2911 22.2955 14.4406C22.819 14.5901 22.819 15.1136 22.819 15.1136C22.819 15.1136 21.5477 15.9361 21.6225 16.2351Z" fill="#ECF2FB"/>
<path d="M26.9452 9.11639C26.9452 9.11639 25.8881 9.33957 25.7908 10.2708C25.6934 11.2022 26.9452 10.4632 27.1376 10.3991" fill="#ECF2FB"/>
<path d="M19.1852 9.18066C19.1852 9.18066 17.7742 9.37305 17.7742 10.2708C17.7742 11.1687 19.3776 11.1046 19.8265 10.7198" fill="#ECF2FB"/>
<path fill-rule="evenodd" clip-rule="evenodd" d="M10.4631 13.3491C10.4631 13.3491 8.02596 11.874 7.76953 13.2851C7.51303 14.6959 6.93568 15.7222 8.15433 17.1971L7.32063 16.9406L6.55104 14.9526L6.29462 13.0286L7.76953 11.4892L9.437 11.6176L10.399 12.3871L10.4631 13.3491Z" fill="#C0CAD9"/>
<path fill-rule="evenodd" clip-rule="evenodd" d="M11.6175 9.30881C11.6175 9.30881 12.7078 3.66523 18.2232 2.57492C22.764 1.67739 25.1494 2.76731 26.0473 3.79337C26.0473 3.79337 22.007 -1.01636 18.159 0.458552C14.311 1.93366 11.4893 4.62721 11.5534 6.35859C11.6626 9.30765 11.6175 9.30881 11.6175 9.30881Z" fill="#ECF2FB"/>
<path fill-rule="evenodd" clip-rule="evenodd" d="M26.4963 4.43461C26.4963 4.43461 24.6366 4.37055 24.5723 6.03805C24.5723 6.03805 24.5721 6.29451 24.7005 6.55098C24.7005 6.55098 26.1758 4.88348 27.0735 5.78139" fill="#ECF2FB"/>
<path fill-rule="evenodd" clip-rule="evenodd" d="M18.3525 6.72471C18.3525 6.72471 18.0323 4.16525 15.8502 5.65325C14.4393 6.61524 14.5677 7.96201 14.8241 8.21848C15.0806 8.47513 15.0108 8.99172 15.2061 8.63713C15.4013 8.28255 15.337 7.12817 16.0426 6.80763C16.748 6.48691 17.9045 6.12866 18.3525 6.72471Z" fill="#C0CAD9"/>
<path fill-rule="evenodd" clip-rule="evenodd" d="M12.3229 24.0591L6.29459 26.7526C6.29459 26.7526 8.79575 36.6932 7.513 39.7716L6.61512 39.451L6.55101 35.6671L4.88378 28.4844L4.17822 26.4962L10.4631 22.2636L12.3229 24.0591Z" fill="#4F5B6C"/>
<path fill-rule="evenodd" clip-rule="evenodd" d="M12.9428 29.5573L13.7981 30.6008V34.4487H12.7718C12.7718 34.4487 12.6437 31.7552 12.6437 31.4344C12.6437 31.1137 12.7718 29.9593 12.7718 29.9593" fill="#4F5B6C"/>
<path fill-rule="evenodd" clip-rule="evenodd" d="M12.9643 35.0259L10.0783 35.154L10.9122 35.7312L12.9643 36.0519" fill="#4F5B6C"/>
<path fill-rule="evenodd" clip-rule="evenodd" d="M22.8408 34.3845L25.2136 34.3203L25.7908 40.2206L23.3537 40.5412L22.8408 34.3845Z" fill="#334155"/>
<path fill-rule="evenodd" clip-rule="evenodd" d="M23.4821 34.3845L27.0735 34.1921C27.0735 34.1921 28.5484 30.4724 28.5484 30.28C28.5484 30.0876 29.8312 24.8929 29.8312 24.8929L26.9452 21.8789L26.368 21.3657L24.8288 22.9049V28.8692L23.4821 34.3845Z" fill="#334155"/>
<path fill-rule="evenodd" clip-rule="evenodd" d="M25.0853 33.9356L22.8408 34.3845L23.1613 36.1803C23.9949 36.5651 25.406 35.5388 25.406 35.5388" fill="#4F5B6C"/>
<path fill-rule="evenodd" clip-rule="evenodd" d="M25.1495 22.7125L29.6387 26.0473L29.7671 24.5082L26.368 21.3657L25.1495 22.7125Z" fill="#4F5B6C"/>
<path fill-rule="evenodd" clip-rule="evenodd" d="M15.1899 47.0191L13.8621 41.6313L13.2017 37.6558L13.0925 34.705L19.102 34.3851L22.8408 34.3845L22.5008 41.119L23.078 46.3137L23.0139 47.2757L18.14 47.6604L15.1899 47.0191Z" fill="white"/>
<path fill-rule="evenodd" clip-rule="evenodd" d="M22.0069 34.3204C22.0069 34.3204 21.6864 40.9902 22.6484 45.7359C22.6484 45.7359 20.7244 46.9545 17.9025 47.2751L23.2897 47.0827L23.9309 46.6979L23.1613 36.1803L22.9689 33.9354" fill="#DCD9D8"/>
<path fill-rule="evenodd" clip-rule="evenodd" d="M25.9001 39.7081L28.4013 39.0026L33.1469 38.7461L33.8524 36.5657L32.5697 32.7818L31.0948 32.5894L29.0425 33.2307L27.0735 34.1921L26.0282 34.0003L25.2136 34.3204" fill="white"/>
<path fill-rule="evenodd" clip-rule="evenodd" d="M25.8549 38.4248C25.8549 38.4248 27.5222 37.6553 27.7788 37.7195L27.0735 34.1921L27.9072 33.8715C27.9072 33.8715 28.4843 37.2063 28.4843 37.5911C28.4843 37.5911 32.0756 37.7835 32.3964 37.7835C32.3964 37.7835 33.1659 36.3084 32.9735 34.7692L33.6791 36.8215L33.7431 37.9759L32.7171 39.5151L31.5627 39.7716L29.6387 39.7075L28.9975 38.8738L26.7528 39.1944L26.0473 39.451" fill="#DCD9D8"/>
<path d="M23.3347 33.8721L21.9238 30.2806L20.4487 28.1643C20.4487 28.1643 20.7693 27.2663 21.2183 27.2663C21.6674 27.2663 22.6934 27.2663 22.6934 27.2663L24.1043 27.7795L23.9761 30.1523L23.3347 33.8721Z" fill="white"/>
<path fill-rule="evenodd" clip-rule="evenodd" d="M23.6103 32.6529C23.6103 32.6529 21.8145 29.1899 21.8145 28.6768C21.8145 28.6768 22.135 27.9072 22.5841 28.0996C23.0332 28.292 23.9951 28.805 23.9951 28.805V27.5865L21.8145 27.1374L20.3396 27.3298L22.8408 33.2301L23.3537 33.2943" fill="#DCD9D8"/>
<path d="M15.7671 24.1882L13.9905 23.995L12.3229 23.4819V24.0591L13.1377 24.9576L15.703 26.112" fill="white"/>
<path fill-rule="evenodd" clip-rule="evenodd" d="M12.9003 24.3804C12.9003 24.3804 14.8886 25.2142 15.5299 25.0218L15.5937 25.7907L13.7983 25.4066L12.7079 24.6371L12.9003 24.3804Z" fill="#DCD9D8"/>
<path fill-rule="evenodd" clip-rule="evenodd" d="M25.8931 27.4847C24.8049 27.4528 23.8218 27.3235 22.961 27.0807C23.0195 26.7278 22.91 26.3815 22.998 26.1274C23.2379 25.9546 23.64 25.9573 24.0026 25.9167C23.689 25.7626 23.2485 25.7016 22.8866 25.7907C22.8781 25.5458 22.7682 25.3939 22.7017 25.2023C23.3135 24.984 24.7578 23.5523 25.5703 24.0264C25.9574 24.2519 26.1219 25.5398 26.1519 26.166C26.1769 26.6855 26.1048 27.2096 25.8931 27.4847Z" fill="#D33833"/>
<path d="M25.8931 27.4847C24.8049 27.4528 23.8218 27.3235 22.961 27.0807C23.0195 26.7278 22.91 26.3815 22.998 26.1274C23.2379 25.9546 23.64 25.9573 24.0026 25.9167C23.689 25.7626 23.2485 25.7016 22.8866 25.7907C22.8781 25.5458 22.7682 25.3939 22.7017 25.2023C23.3135 24.984 24.7578 23.5523 25.5703 24.0264C25.9574 24.2519 26.1219 25.5398 26.1519 26.166C26.1769 26.6855 26.1048 27.2096 25.8931 27.4847Z" fill="#515E70" stroke="#334155" stroke-width="2.5"/>
<path fill-rule="evenodd" clip-rule="evenodd" d="M20.6894 25.7058C20.6865 25.7882 20.6831 25.8711 20.6798 25.9542C20.34 26.1774 19.7915 26.1747 19.4186 26.3623C19.9683 26.3863 20.401 26.5187 20.7754 26.7053C20.7672 26.9127 20.7593 27.1199 20.7512 27.3273C20.1284 27.7537 19.5595 28.3886 18.8262 28.7884C18.4795 28.9775 17.2628 29.4641 16.8939 29.3781C16.6852 29.3296 16.6664 29.0706 16.583 28.8265C16.4052 28.3038 15.996 27.4716 15.9603 26.6847C15.9149 25.6908 15.8145 24.025 16.8856 24.2298C17.7498 24.3946 18.7548 24.7927 19.4238 25.1583C19.8327 25.3818 20.0691 25.6581 20.6894 25.7058Z" fill="#334155"/>
<path d="M20.7544 25.4933C20.7515 25.5757 20.748 25.6586 20.7447 25.7417C20.405 25.9649 19.8564 25.9622 19.4836 26.1498C20.0333 26.1738 20.466 26.3062 20.8404 26.4928C20.8321 26.7002 20.8242 26.9074 20.8161 27.1148C20.1933 27.5412 19.6244 28.1761 18.8912 28.5759C18.5445 28.765 17.3277 29.2516 16.9588 29.1656C16.7501 29.1171 16.7313 28.8581 16.6479 28.614C16.4702 28.0912 16.061 27.2591 16.0253 26.4722C15.9798 25.4783 15.8795 23.8125 16.9506 24.0172C17.8147 24.1821 18.8198 24.5802 19.4888 24.9457C19.8976 25.1693 20.1341 25.4456 20.7544 25.4933Z" stroke="#334155" stroke-width="2.5"/>
<path fill-rule="evenodd" clip-rule="evenodd" d="M21.308 26.8918C21.2129 26.3504 21.1031 26.1959 21.1456 25.7235C22.5895 24.7608 22.8606 27.3772 21.308 26.8918Z" fill="#334155"/>
<path d="M21.308 26.8918C21.2129 26.3504 21.1031 26.1959 21.1456 25.7235C22.5895 24.7608 22.8606 27.3772 21.308 26.8918Z" stroke="#334155" stroke-width="2.5"/>
<path fill-rule="evenodd" clip-rule="evenodd" d="M23.3987 27.3306C23.3987 27.3306 22.9497 26.6892 23.2704 26.4968C23.5911 26.3044 23.9118 26.497 24.1042 26.1762C24.2966 25.8555 24.1042 25.6631 24.1683 25.2783C24.2324 24.8935 24.5533 24.8293 24.8738 24.7652C25.1943 24.7011 26.0925 24.5728 26.2206 24.8935L25.8358 23.7391L25.0662 23.4827L22.6291 24.8935L22.5008 25.599V27.0099" fill="#515E70"/>
<path fill-rule="evenodd" clip-rule="evenodd" d="M16.6649 29.447C16.5879 28.4461 16.5063 27.4466 16.4156 26.4467C16.2799 24.9537 16.7742 25.2142 18.0684 25.2142C18.2661 25.2142 19.2855 25.4499 19.3584 25.599C19.7082 26.3134 18.7735 26.1547 19.7613 26.6934C20.5951 27.148 22.0681 26.4173 21.7313 25.4066C21.5427 25.1819 20.7489 25.3366 20.4643 25.189C19.9633 24.9293 19.4623 24.6696 18.9613 24.4098C18.3238 24.0791 16.8505 23.597 16.1709 24.0591C14.4489 25.2302 16.2796 28.1564 16.8939 29.3781" fill="#515E70"/>
<path fill-rule="evenodd" clip-rule="evenodd" d="M18.3525 6.72472C16.6045 6.31761 15.7359 7.45621 15.2061 8.63715C14.733 8.52248 14.9213 7.8791 15.0408 7.55126C15.3536 6.69086 16.6145 5.54552 17.6447 5.70078C18.0881 5.76754 18.688 6.17293 18.3525 6.72472Z" fill="#231F20"/>
<path fill-rule="evenodd" clip-rule="evenodd" d="M26.8692 8.71525C26.8967 8.7164 26.9246 8.71736 26.9521 8.71852C27.3471 9.53909 27.689 10.4083 28.1873 11.1327C27.8535 11.9102 25.6596 12.5982 25.6934 11.2022C26.1679 10.9948 26.9869 11.1598 27.4075 10.8949C27.1643 10.2275 26.8134 9.65934 26.8692 8.71525Z" fill="#231F20"/>
<path fill-rule="evenodd" clip-rule="evenodd" d="M19.2474 8.73662C19.6221 9.42367 19.7441 10.1455 20.2769 10.6648C20.5168 10.8986 20.9834 11.1835 20.7521 11.8336C20.698 11.987 20.303 12.3289 20.075 12.396C19.2422 12.6419 17.3014 12.4468 17.9586 11.4084C18.6474 11.4406 19.5733 11.8558 20.0881 11.3557C19.6928 10.7237 18.9879 9.47331 19.2474 8.73662Z" fill="#231F20"/>
<path fill-rule="evenodd" clip-rule="evenodd" d="M26.5565 15.7195C25.3025 16.525 23.9042 17.401 21.8494 17.1978C21.4103 16.8161 21.2429 15.9667 21.6695 15.4057C21.8915 15.7874 21.752 16.4894 22.3708 16.5951C23.5367 16.7946 24.8937 15.8818 25.7323 15.5629C26.2524 14.6861 25.6875 14.3636 25.219 13.7993C24.2599 12.6432 22.9733 11.2103 23.0201 9.47946C23.4078 9.19836 23.4412 9.9085 23.4968 10.0378C23.9977 11.2099 25.258 12.7088 26.1779 13.712C26.4038 13.959 26.7757 14.1961 26.817 14.3594C26.9363 14.8344 26.5067 15.4035 26.5565 15.7195Z" fill="#231F20"/>
<path fill-rule="evenodd" clip-rule="evenodd" d="M10.0242 14.8714C9.6311 14.647 9.53754 13.6589 9.07608 13.6308C8.4166 13.5908 8.53685 14.9127 8.53948 15.6858C8.08554 15.2737 8.00572 14.0048 8.3392 13.3532C7.95914 13.1665 7.78942 13.559 7.57861 13.6974C7.84955 11.7291 10.4578 12.7844 10.0242 14.8714Z" fill="#231F20"/>
<path fill-rule="evenodd" clip-rule="evenodd" d="M27.355 16.5391C26.7713 17.6502 25.9455 18.8738 24.2326 18.9094C24.1978 18.5506 24.171 18.0046 24.2345 17.7885C25.544 17.6627 26.3524 16.9962 27.355 16.5391Z" fill="#231F20"/>
<path fill-rule="evenodd" clip-rule="evenodd" d="M19.1486 17.2594C20.2411 17.8339 22.249 17.8957 23.7339 17.8522C23.8136 18.1775 23.8116 18.5794 23.8147 18.9762C21.9059 19.0714 19.6491 18.5991 19.1486 17.2594Z" fill="#231F20"/>
<path fill-rule="evenodd" clip-rule="evenodd" d="M18.941 18.3307C19.6964 20.2275 22.293 20.0091 24.4827 19.9568C24.3863 20.2031 24.1774 20.494 23.9176 20.5992C23.216 20.8847 21.2806 21.1014 20.3065 20.584C19.6887 20.2556 19.2918 19.5135 18.9533 19.0785C18.7899 18.8684 17.9759 18.3318 18.941 18.3307Z" fill="#231F20"/>
<path fill-rule="evenodd" clip-rule="evenodd" d="M26.4653 28.7938C25.5788 30.3122 24.7305 31.8717 23.6786 33.2111C24.1196 31.9145 24.3084 29.7444 24.3749 28.09C25.2975 27.6583 26.0875 28.1872 26.4653 28.7938Z" fill="#4F5B6C"/>
<path fill-rule="evenodd" clip-rule="evenodd" d="M31.236 34.2511C30.2435 34.4499 29.546 35.4145 28.5777 35.3526C29.1099 34.6024 30.0424 34.2862 31.236 34.2511Z" fill="#231F20"/>
<path fill-rule="evenodd" clip-rule="evenodd" d="M31.6739 35.8045C30.8649 35.89 29.9146 36.021 29.0941 35.9535C29.4825 35.3601 30.9792 35.5648 31.6739 35.8045Z" fill="#231F20"/>
<path fill-rule="evenodd" clip-rule="evenodd" d="M31.9543 37.1438C31.045 37.1635 29.9148 37.1454 29.0506 37.0728C29.5618 36.5238 31.3646 36.8691 31.9543 37.1438Z" fill="#231F20"/>
<path fill-rule="evenodd" clip-rule="evenodd" d="M24.7546 40.8088C24.885 41.9507 25.3377 43.1077 25.2809 44.3583C24.7782 44.5278 24.4894 44.6761 23.8158 44.6752C23.7683 43.6124 23.6261 41.9876 23.6687 40.9744C24 40.9964 24.4885 40.7378 24.7546 40.8088Z" fill="#DCD9D8"/>
<path fill-rule="evenodd" clip-rule="evenodd" d="M23.2887 23.9794C22.8321 24.2775 22.4433 24.6496 22.0048 24.9678C21.0324 25.0159 20.5018 24.9005 19.7874 24.3421C19.7992 24.2973 19.8709 24.3173 19.8736 24.2623C20.9145 24.7261 22.2376 24.0733 23.2887 23.9794Z" fill="#99A6B8"/>
<path fill-rule="evenodd" clip-rule="evenodd" d="M17.8245 31.0746C18.1105 29.8354 19.2311 29.1936 20.2486 28.5112C21.2989 29.8441 21.9377 31.5583 22.6411 33.2126C20.9792 32.7116 19.2811 31.8987 17.8245 31.0746Z" fill="#4F5B6C"/>
<path fill-rule="evenodd" clip-rule="evenodd" d="M23.6686 40.9744C23.6261 41.9876 23.7683 43.6124 23.8158 44.6752C24.4894 44.6761 24.7782 44.5278 25.2809 44.3583C25.3377 43.1077 24.885 41.9507 24.7545 40.8088C24.4884 40.7378 23.9999 40.9964 23.6686 40.9744ZM13.1803 35.2124C13.6245 39.2956 14.2678 42.7281 15.4477 46.3439C18.0665 47.139 21.2235 47.2083 23.5382 46.4908C23.1132 44.45 23.2989 41.9655 23.0505 39.7877C22.8633 38.1509 22.9587 36.5039 22.702 34.8339C19.8973 34.2504 15.9328 34.6975 13.1803 35.2124ZM23.3652 34.8595C23.3416 36.6132 23.4437 38.343 23.5776 40.0989C24.251 39.9978 24.708 39.9303 25.3336 39.7931C25.1305 38.1028 25.1555 36.2007 24.7416 34.7054C24.2633 34.71 23.8422 34.6998 23.3652 34.8595ZM26.7812 34.5769C26.4617 34.5036 26.0896 34.574 25.7842 34.5799C25.9278 36.0095 26.276 37.5869 26.3986 39.0874C26.879 39.1024 27.1356 38.8758 27.5308 38.7996C27.552 37.4824 27.4158 35.6677 26.7812 34.5769ZM31.9536 39.3027C32.9551 39.0595 33.5848 37.833 33.3046 36.5734C33.1167 35.7268 32.7819 34.1328 32.4237 33.5912C32.1589 33.1906 31.4411 32.6662 30.8679 33.0333C29.9356 33.6303 28.2931 33.8036 27.6132 34.5263C27.9541 35.6614 28.0599 37.2206 28.2005 38.6589C29.3653 38.7315 30.7985 38.3384 31.7672 38.7556C31.0909 38.9746 30.2134 38.9764 29.6291 39.2956C30.1066 39.5263 31.2246 39.4797 31.9536 39.3027ZM22.6411 33.2126C21.9376 31.5583 21.2989 29.8441 20.2486 28.5112C19.231 29.1936 18.1105 29.8354 17.8245 31.0746C19.281 31.8987 20.9791 32.7116 22.6411 33.2126ZM24.3749 28.09C24.3084 29.7444 24.1196 31.9145 23.6786 33.2111C24.7305 31.8717 25.5788 30.3122 26.4653 28.7937C26.0875 28.1872 25.2975 27.6583 24.3749 28.09ZM22.4094 27.3916C22.0109 27.3487 21.6727 27.8497 21.1546 27.6331C21.0359 27.7643 20.9279 27.9065 20.8069 28.0346C21.9513 29.4137 22.4714 31.3704 23.3552 32.9911C23.8295 31.4342 23.7748 29.7286 23.8793 28.0294C23.2277 28.0708 22.8662 27.4401 22.4094 27.3916ZM21.1455 25.7235C21.103 26.1959 21.2129 26.3503 21.3079 26.8918C22.8606 27.3772 22.5895 24.7608 21.1455 25.7235ZM19.4238 25.1583C18.7548 24.7927 17.7497 24.3946 16.8856 24.2297C15.8145 24.0248 15.9148 25.6908 15.9603 26.6847C15.996 27.4716 16.4052 28.3038 16.5829 28.8265C16.6664 29.0706 16.6852 29.3296 16.8938 29.3781C17.2627 29.4641 18.4795 28.9775 18.8262 28.7884C19.5594 28.3886 20.1283 27.7537 20.7511 27.3273C20.7592 27.1199 20.7671 26.9127 20.7754 26.7053C20.401 26.5187 19.9683 26.3863 19.4186 26.3623C19.7915 26.1747 20.34 26.1774 20.6798 25.9542C20.683 25.8711 20.6865 25.7882 20.6894 25.7058C20.0691 25.6581 19.8326 25.3818 19.4238 25.1583ZM13.0336 23.9975C12.4783 24.5612 14.591 25.3297 15.2636 25.371C15.2598 25.0143 15.4669 24.678 15.4252 24.4221C14.6263 24.2819 13.5764 24.3744 13.0336 23.9975ZM19.8736 24.2623C19.8709 24.3173 19.7992 24.2973 19.7874 24.3421C20.5018 24.9004 21.0324 25.0159 22.0048 24.9678C22.4433 24.6496 22.8321 24.2775 23.2887 23.9794C22.2376 24.0733 20.9145 24.7261 19.8736 24.2623ZM26.1519 26.166C26.1219 25.5398 25.9574 24.2519 25.5703 24.0264C24.7578 23.5521 23.3135 24.9839 22.7017 25.2023C22.7682 25.3939 22.8781 25.5457 22.8865 25.7907C23.2484 25.7016 23.689 25.7626 24.0026 25.9167C23.64 25.9573 23.2379 25.9546 22.9979 26.1274C22.91 26.3815 23.0195 26.7278 22.961 27.0807C23.8218 27.3235 24.8049 27.4528 25.8931 27.4847C26.1048 27.2096 26.1769 26.6855 26.1519 26.166ZM12.0988 24.5428C11.9244 24.4185 10.7449 22.8837 10.5833 22.9474C8.44891 23.7892 6.45316 25.2446 4.66974 26.6212C6.37012 30.2699 7.05652 34.74 7.1778 39.0485C9.12567 39.9595 10.8366 41.2729 13.4798 41.41C13.1739 39.2459 12.8947 37.3152 12.7211 35.2778C12.0569 34.9978 11.1041 35.2905 10.4826 35.1909C10.4773 34.442 11.4318 34.863 11.5113 34.3593C11.5712 33.9783 10.9861 33.9495 11.1767 33.3496C11.6625 33.5262 11.9177 33.9163 12.4359 34.0628C12.9094 33.0269 12.4293 31.1941 12.4975 30.3283C12.5104 30.1658 12.5787 29.4278 12.9428 29.5573C13.2651 29.6719 12.9244 31.5201 12.9597 32.3395C12.9919 33.0944 12.8685 33.8249 13.1743 34.2989C15.7284 33.9512 18.3239 33.7265 21.0874 33.6507C20.4795 33.3898 19.7572 33.1429 18.9653 32.6966C18.5361 32.4546 17.1829 31.951 17.059 31.5433C16.8614 30.8936 17.5776 30.5475 17.7001 29.9905C16.4108 30.6937 16.1593 29.3165 15.8543 28.3409C15.578 27.4572 15.4207 26.7971 15.3529 26.2874C14.2422 25.758 13.0548 25.2217 12.0988 24.5428ZM25.0239 23.1331C26.8022 22.2708 27.1227 26.3559 26.4257 27.6719C26.5334 28.0644 26.904 28.2147 27.0552 28.5675C26.0628 30.3453 24.9606 32.0047 23.948 33.7615C24.7012 33.2926 25.7771 33.6776 26.6635 33.3267C26.9875 33.1985 27.222 32.4568 27.4673 31.8635C28.1421 30.231 28.8505 28.1729 29.1656 26.6151C29.2368 26.2601 29.4307 25.4867 29.3873 25.1708C29.3097 24.6051 28.5422 24.1857 28.1519 23.8359C27.4327 23.1898 26.9798 22.6213 26.2296 22.0172C25.9255 22.4662 25.2727 22.7679 25.0239 23.1331ZM8.0318 7.3627C7.18442 8.29505 7.36179 10.042 7.46438 11.2849C8.99603 10.3214 11.029 11.3611 11.0098 12.9999C11.7411 12.9805 11.283 12.0866 11.1507 11.5108C10.7184 9.6299 11.879 7.58646 11.2033 5.86643C9.8915 5.9659 8.81377 6.50172 8.0318 7.3627ZM14.0949 1.95134C12.1766 2.49506 9.71804 3.88898 8.92975 5.61227C9.54015 5.52358 9.96388 5.21574 10.566 5.17765C10.7936 5.16283 11.0917 5.27308 11.3533 5.20805C11.8745 5.07876 12.3144 3.91014 12.7076 3.47532C13.0909 3.0507 13.5515 2.86927 13.8668 2.48217C14.0694 2.38443 14.3689 2.39117 14.3804 2.08699C14.2926 1.9931 14.2001 1.92152 14.0949 1.95134ZM24.0809 2.46273C22.0898 1.33933 18.7196 0.494323 16.6016 1.5502C14.8926 2.40232 12.5824 3.81221 11.7948 5.5988C12.5306 7.32287 11.5769 8.90265 11.516 10.6531C11.4837 11.5845 11.9545 12.3975 11.9906 13.4115C11.7388 13.8268 10.9696 13.878 10.4371 13.8496C10.2579 12.9526 9.9441 11.9444 9.02046 11.8432C7.71351 11.7003 6.75792 12.7819 6.69854 13.9123C6.62828 15.2415 7.71952 17.4447 9.26621 17.2917C9.8637 17.2327 10.0105 16.6337 10.6615 16.6399C11.0143 17.3439 10.1172 17.5649 10.0249 18.0684C10.0009 18.1985 10.0993 18.7068 10.1566 18.9452C10.4375 20.1059 11.0638 21.6082 11.6802 22.4918C12.4626 23.6127 13.9996 23.7817 15.6533 23.8915C15.9486 23.2553 17.0366 23.3076 17.7456 23.474C16.896 23.1375 16.1061 22.3217 15.4515 21.5997C14.6995 20.7712 13.9379 19.8825 13.8994 18.7997C15.3203 20.771 16.4943 22.4926 19.0781 23.3597C21.0332 24.0154 23.3166 23.0592 24.8188 22.0043C25.4422 21.5658 25.8143 20.8701 26.2573 20.2333C27.9152 17.8485 28.6889 14.4446 28.5188 11.1454C28.4487 9.78479 28.4518 8.42877 27.9953 7.51335C27.5181 6.55617 25.9043 5.69982 24.9596 6.5656C24.7845 5.63479 25.7452 5.05913 26.8736 5.3941C26.069 4.35573 25.2246 3.10803 24.0809 2.46273ZM27.7906 33.163C29.3465 32.3895 32.2536 31.081 33.229 33.1658C33.589 33.9343 34.0113 35.2333 34.1978 36.0266C34.4611 37.1457 33.9122 39.498 32.7619 39.8736C31.7458 40.2052 30.5603 40.185 29.3365 39.9392C29.1924 39.8193 29.0319 39.6104 28.9197 39.3926C28.0459 39.3587 27.2276 39.4395 26.5373 39.7987C26.6027 40.445 26.1656 40.5487 25.7558 40.6818C25.452 41.8864 26.3635 43.4594 26.1454 44.5578C25.9897 45.3403 25.027 45.4613 24.3193 45.6077C24.2962 46.0426 24.3503 46.4056 24.3986 46.7735C24.2368 47.3697 23.5111 47.7091 22.8234 47.7922C20.561 48.0643 17.1259 48.1865 14.9498 47.4039C14.3426 45.9145 13.8642 44.1028 13.3584 42.402C11.236 42.6287 9.51948 41.4862 7.90125 40.7378C7.34097 40.478 6.5659 40.3349 6.35659 39.889C6.15367 39.4572 6.23671 38.6297 6.18636 37.848C6.05823 35.8515 5.9485 33.9258 5.42128 31.8816C5.18455 30.9642 4.77194 30.1548 4.48409 29.2709C4.21805 28.4517 3.75321 27.4393 3.63199 26.6224C3.45223 25.4116 4.59232 25.3443 5.32133 24.8196C6.44827 24.0083 7.33286 23.5596 8.55336 22.8274C8.91486 22.6105 10.005 22.0616 10.129 21.8088C10.3755 21.3076 9.70588 20.601 9.52685 20.2081C9.24366 19.5868 9.09598 19.0591 9.0554 18.4461C8.03156 18.2843 7.25543 17.675 6.78662 16.9879C6.01111 15.8509 5.47328 13.7472 6.14427 12.147C6.19689 12.021 6.45932 11.7732 6.49803 11.5797C6.57439 11.1985 6.35432 10.6917 6.34065 10.2864C6.27015 8.20655 6.69254 6.41457 8.09267 5.78735C8.66107 3.52303 10.6954 2.77018 12.6121 1.64486C13.3286 1.22428 14.1184 0.955496 14.934 0.655357C17.86 -0.421488 22.3494 -0.218701 24.7778 1.61792C25.8075 2.39674 27.4535 4.04116 28.0422 5.23171C29.5972 8.3749 29.4867 13.6279 28.3991 17.4514C28.2529 17.9647 28.0409 18.7193 27.7448 19.3359C27.5383 19.7665 26.8967 20.6281 26.9746 21.0083C27.0548 21.4013 28.4376 22.4512 28.7341 22.7371C29.268 23.2522 30.2823 23.9358 30.3644 24.5857C30.4527 25.2774 30.0597 26.2236 29.8606 26.891C29.1949 29.1183 28.5453 31.1772 27.7906 33.163Z" fill="#231F20"/>
<path fill-rule="evenodd" clip-rule="evenodd" d="M17.4102 17.7446C17.4946 17.6323 17.9587 17.4616 18.608 17.7743C18.608 17.7743 17.8384 17.9026 17.9025 19.1857L17.5818 19.1214C17.5818 19.1214 17.2504 17.958 17.4102 17.7446Z" fill="#ECF2FB"/>
<path fill-rule="evenodd" clip-rule="evenodd" d="M23.0332 28.773C23.0332 28.9677 22.8752 29.1256 22.6803 29.1256C22.4856 29.1256 22.3276 28.9677 22.3276 28.773C22.3276 28.5783 22.4856 28.4202 22.6803 28.4202C22.8752 28.4202 23.0332 28.5783 23.0332 28.773Z" fill="#1D1919"/>
<path fill-rule="evenodd" clip-rule="evenodd" d="M23.3858 30.4084C23.3858 30.6031 23.2279 30.761 23.033 30.761C22.8383 30.761 22.6803 30.6031 22.6803 30.4084C22.6803 30.2137 22.8383 30.0555 23.033 30.0555C23.2279 30.0555 23.3858 30.2137 23.3858 30.4084Z" fill="#1D1919"/>
<path d="M65.2188 15.2344C64.8021 15.2865 64.4479 15.3385 64.1562 15.3906C63.8646 15.4427 63.5365 15.5156 63.1719 15.6094C62.7448 15.724 62.4688 15.9271 62.3438 16.2188C62.2292 16.5104 62.1719 16.8438 62.1719 17.2188V29.4375C62.1719 30.5625 61.9427 31.5938 61.4844 32.5312C61.0365 33.4688 60.4167 34.2552 59.625 34.8906C58.8229 35.5156 57.9271 35.9844 56.9375 36.2969C55.9479 36.6198 54.8906 36.7812 53.7656 36.7812C51.8177 36.7812 50.2448 36.3125 49.0469 35.375C47.8594 34.4375 47.2656 33.151 47.2656 31.5156C47.2656 30.5469 47.5365 29.7448 48.0781 29.1094C48.6302 28.474 49.3854 28.1562 50.3438 28.1562C51.25 28.1562 51.9688 28.4219 52.5 28.9531C53.0417 29.4844 53.3125 30.1406 53.3125 30.9219C53.3125 31.5885 53.0781 32.2083 52.6094 32.7812C52.151 33.3438 51.625 33.8646 51.0312 34.3438V34.5469C51.125 34.7552 51.3281 34.9323 51.6406 35.0781C51.9531 35.224 52.2708 35.2969 52.5938 35.2969C53.8438 35.2969 54.8229 34.849 55.5312 33.9531C56.25 33.0573 56.6094 31.7031 56.6094 29.8906V17.375C56.6094 17 56.5521 16.6875 56.4375 16.4375C56.3229 16.1875 56.0469 15.9688 55.6094 15.7812C55.2969 15.6458 54.9167 15.5312 54.4688 15.4375C54.0312 15.3438 53.6667 15.276 53.375 15.2344V14.0156H65.2188V15.2344Z" fill="#334155"/>
<path d="M83.7656 32.4531C83.401 33.0469 82.9583 33.6094 82.4375 34.1406C81.9271 34.6615 81.3438 35.1094 80.6875 35.4844C79.9896 35.8802 79.2812 36.1771 78.5625 36.375C77.8542 36.5833 77.0365 36.6875 76.1094 36.6875C74.5677 36.6875 73.2344 36.4688 72.1094 36.0312C70.9948 35.5938 70.0729 35.0052 69.3438 34.2656C68.6146 33.526 68.0677 32.6562 67.7031 31.6562C67.349 30.6458 67.1719 29.5521 67.1719 28.375C67.1719 27.3125 67.3646 26.2969 67.75 25.3281C68.1458 24.349 68.7031 23.4792 69.4219 22.7188C70.1302 21.9792 71.0208 21.3802 72.0938 20.9219C73.1771 20.4635 74.3854 20.2344 75.7188 20.2344C77.1771 20.2344 78.375 20.4115 79.3125 20.7656C80.25 21.1198 81.026 21.6094 81.6406 22.2344C82.2344 22.8281 82.6667 23.5312 82.9375 24.3438C83.2083 25.1458 83.3438 25.9896 83.3438 26.875V27.8906H72.7812C72.7812 30.026 73.1927 31.651 74.0156 32.7656C74.8385 33.8802 76.1458 34.4375 77.9375 34.4375C78.9167 34.4375 79.7969 34.1719 80.5781 33.6406C81.3594 33.099 82.026 32.4167 82.5781 31.5938L83.7656 32.4531ZM77.7969 26.5156C77.7969 25.8906 77.7656 25.25 77.7031 24.5938C77.6406 23.9375 77.5312 23.401 77.375 22.9844C77.1979 22.4948 76.9531 22.125 76.6406 21.875C76.3385 21.625 75.9531 21.5 75.4844 21.5C74.6823 21.5 74.0417 21.9062 73.5625 22.7188C73.0833 23.5312 72.8229 24.8177 72.7812 26.5781L77.7969 26.5156Z" fill="#334155"/>
<path d="M105.906 36.1875H96.5V35.0469C96.6979 35.026 96.9375 35 97.2188 34.9688C97.5 34.9375 97.7135 34.8854 97.8594 34.8125C98.0781 34.6979 98.2344 34.5312 98.3281 34.3125C98.4219 34.0938 98.4688 33.7708 98.4688 33.3438V26.0312C98.4688 24.9688 98.2708 24.1719 97.875 23.6406C97.4896 23.099 96.9167 22.8281 96.1562 22.8281C95.7396 22.8281 95.349 22.8906 94.9844 23.0156C94.6302 23.1406 94.2812 23.3229 93.9375 23.5625C93.6354 23.7708 93.3906 23.9844 93.2031 24.2031C93.026 24.4219 92.875 24.6146 92.75 24.7812V33.1719C92.75 33.5365 92.8021 33.8438 92.9062 34.0938C93.0104 34.3333 93.1823 34.5156 93.4219 34.6406C93.5885 34.7344 93.7969 34.8177 94.0469 34.8906C94.2969 34.9635 94.5417 35.0156 94.7812 35.0469V36.1875H85.2812V35.0469C85.5417 35.026 85.8021 35 86.0625 34.9688C86.3333 34.9271 86.5625 34.875 86.75 34.8125C87.0833 34.6979 87.3125 34.5208 87.4375 34.2812C87.5625 34.0417 87.625 33.7292 87.625 33.3438V24.25C87.625 23.9271 87.5417 23.6094 87.375 23.2969C87.2083 22.9844 86.9896 22.7292 86.7188 22.5312C86.5312 22.4062 86.2917 22.3021 86 22.2188C85.7188 22.1354 85.4062 22.0781 85.0625 22.0469V20.9062L92.5156 20.5L92.75 20.7344V23H92.8125C93.1042 22.7396 93.4583 22.4271 93.875 22.0625C94.2917 21.6979 94.6771 21.401 95.0312 21.1719C95.4167 20.9219 95.9219 20.7083 96.5469 20.5312C97.1719 20.3542 97.8385 20.2656 98.5469 20.2656C100.245 20.2656 101.516 20.75 102.359 21.7188C103.214 22.6771 103.641 23.9531 103.641 25.5469V33.2031C103.641 33.5885 103.698 33.8958 103.812 34.125C103.927 34.3542 104.141 34.5365 104.453 34.6719C104.62 34.7448 104.823 34.8177 105.062 34.8906C105.312 34.9635 105.594 35.0156 105.906 35.0469V36.1875Z" fill="#334155"/>
<path d="M127.422 36.1875H120.062C119.156 34.5938 118.328 33.2448 117.578 32.1406C116.828 31.026 116.12 29.9948 115.453 29.0469L114.516 29.8438V33.25C114.516 33.625 114.568 33.9323 114.672 34.1719C114.786 34.4115 115 34.5885 115.312 34.7031C115.5 34.7865 115.719 34.8594 115.969 34.9219C116.219 34.9844 116.469 35.026 116.719 35.0469V36.1875H107.047V35.0469C107.307 35.026 107.568 35 107.828 34.9688C108.089 34.9271 108.318 34.875 108.516 34.8125C108.849 34.6979 109.073 34.5208 109.188 34.2812C109.312 34.0417 109.375 33.7292 109.375 33.3438V15.9219C109.375 15.5781 109.297 15.224 109.141 14.8594C108.995 14.4844 108.776 14.2031 108.484 14.0156C108.286 13.8906 107.99 13.7865 107.594 13.7031C107.198 13.6198 106.839 13.5677 106.516 13.5469V12.4062L114.281 12L114.516 12.25V28.375C115.286 27.6875 116.151 26.8906 117.109 25.9844C118.078 25.0781 118.854 24.3281 119.438 23.7344C119.781 23.3802 119.969 23.1146 120 22.9375C120.042 22.75 120.062 22.6354 120.062 22.5938C120.062 22.4062 119.896 22.25 119.562 22.125C119.24 22 118.75 21.8906 118.094 21.7969V20.6875H126.031V21.7656C124.99 22.0573 124.193 22.3333 123.641 22.5938C123.099 22.8438 122.505 23.1823 121.859 23.6094C121.432 23.8906 121.016 24.1875 120.609 24.5C120.214 24.8021 119.755 25.1823 119.234 25.6406C120.255 27.1198 121.198 28.4896 122.062 29.75C122.927 31.0104 123.833 32.3438 124.781 33.75C125.104 34.2396 125.505 34.5677 125.984 34.7344C126.464 34.901 126.943 35.0052 127.422 35.0469V36.1875Z" fill="#334155"/>
<path d="M137.469 36.1875H127.594V35.0469C127.865 35.026 128.13 35 128.391 34.9688C128.651 34.9375 128.875 34.8854 129.062 34.8125C129.396 34.6875 129.63 34.5104 129.766 34.2812C129.901 34.0417 129.969 33.7292 129.969 33.3438V24.25C129.969 23.8854 129.885 23.5677 129.719 23.2969C129.552 23.0156 129.344 22.7917 129.094 22.625C128.906 22.5 128.62 22.3802 128.234 22.2656C127.859 22.151 127.516 22.0781 127.203 22.0469V20.9062L134.859 20.5L135.094 20.7344V33.1406C135.094 33.5052 135.172 33.8177 135.328 34.0781C135.484 34.3281 135.708 34.5156 136 34.6406C136.208 34.7344 136.438 34.8177 136.688 34.8906C136.938 34.9635 137.198 35.0156 137.469 35.0469V36.1875ZM135.188 14.875C135.188 15.6667 134.88 16.3438 134.266 16.9062C133.661 17.4583 132.943 17.7344 132.109 17.7344C131.266 17.7344 130.536 17.4583 129.922 16.9062C129.318 16.3438 129.016 15.6667 129.016 14.875C129.016 14.0833 129.318 13.4062 129.922 12.8438C130.536 12.2812 131.266 12 132.109 12C132.953 12 133.677 12.2812 134.281 12.8438C134.885 13.4062 135.188 14.0833 135.188 14.875Z" fill="#334155"/>
<path d="M159.531 36.1875H150.125V35.0469C150.323 35.026 150.562 35 150.844 34.9688C151.125 34.9375 151.339 34.8854 151.484 34.8125C151.703 34.6979 151.859 34.5312 151.953 34.3125C152.047 34.0938 152.094 33.7708 152.094 33.3438V26.0312C152.094 24.9688 151.896 24.1719 151.5 23.6406C151.115 23.099 150.542 22.8281 149.781 22.8281C149.365 22.8281 148.974 22.8906 148.609 23.0156C148.255 23.1406 147.906 23.3229 147.562 23.5625C147.26 23.7708 147.016 23.9844 146.828 24.2031C146.651 24.4219 146.5 24.6146 146.375 24.7812V33.1719C146.375 33.5365 146.427 33.8438 146.531 34.0938C146.635 34.3333 146.807 34.5156 147.047 34.6406C147.214 34.7344 147.422 34.8177 147.672 34.8906C147.922 34.9635 148.167 35.0156 148.406 35.0469V36.1875H138.906V35.0469C139.167 35.026 139.427 35 139.688 34.9688C139.958 34.9271 140.188 34.875 140.375 34.8125C140.708 34.6979 140.938 34.5208 141.062 34.2812C141.188 34.0417 141.25 33.7292 141.25 33.3438V24.25C141.25 23.9271 141.167 23.6094 141 23.2969C140.833 22.9844 140.615 22.7292 140.344 22.5312C140.156 22.4062 139.917 22.3021 139.625 22.2188C139.344 22.1354 139.031 22.0781 138.688 22.0469V20.9062L146.141 20.5L146.375 20.7344V23H146.438C146.729 22.7396 147.083 22.4271 147.5 22.0625C147.917 21.6979 148.302 21.401 148.656 21.1719C149.042 20.9219 149.547 20.7083 150.172 20.5312C150.797 20.3542 151.464 20.2656 152.172 20.2656C153.87 20.2656 155.141 20.75 155.984 21.7188C156.839 22.6771 157.266 23.9531 157.266 25.5469V33.2031C157.266 33.5885 157.323 33.8958 157.438 34.125C157.552 34.3542 157.766 34.5365 158.078 34.6719C158.245 34.7448 158.448 34.8177 158.688 34.8906C158.938 34.9635 159.219 35.0156 159.531 35.0469V36.1875Z" fill="#334155"/>
<path d="M168.234 36.7188C167.224 36.7188 166.234 36.5677 165.266 36.2656C164.307 35.974 163.562 35.6615 163.031 35.3281L162.562 36.3906H161.344L161.141 30.5625H162.281C162.438 31.0312 162.698 31.5625 163.062 32.1562C163.427 32.7396 163.844 33.2656 164.312 33.7344C164.802 34.2031 165.359 34.599 165.984 34.9219C166.62 35.2448 167.297 35.4062 168.016 35.4062C168.964 35.4062 169.667 35.224 170.125 34.8594C170.594 34.4844 170.828 33.9115 170.828 33.1406C170.828 32.724 170.724 32.3802 170.516 32.1094C170.307 31.8385 170.021 31.6042 169.656 31.4062C169.25 31.1979 168.802 31.0208 168.312 30.875C167.833 30.7292 167.24 30.5521 166.531 30.3438C165.823 30.1354 165.214 29.9271 164.703 29.7188C164.203 29.5 163.682 29.1615 163.141 28.7031C162.672 28.2969 162.297 27.8073 162.016 27.2344C161.734 26.6615 161.594 25.9792 161.594 25.1875C161.594 23.7188 162.208 22.5312 163.438 21.625C164.677 20.7188 166.297 20.2656 168.297 20.2656C169.245 20.2656 170.115 20.3646 170.906 20.5625C171.708 20.75 172.38 20.9583 172.922 21.1875L173.25 20.2656H174.438L174.688 25.5938H173.578C173.214 24.5104 172.589 23.5781 171.703 22.7969C170.818 22.0052 169.865 21.6094 168.844 21.6094C168.042 21.6094 167.411 21.776 166.953 22.1094C166.495 22.4427 166.266 22.9062 166.266 23.5C166.266 24.2917 166.599 24.8646 167.266 25.2188C167.943 25.5729 168.885 25.9062 170.094 26.2188C171.958 26.6979 173.323 27.3542 174.188 28.1875C175.052 29.0104 175.484 30.0625 175.484 31.3438C175.484 33.0521 174.812 34.375 173.469 35.3125C172.135 36.25 170.391 36.7188 168.234 36.7188Z" fill="#334155"/>
</svg>
